<mxfile host="app.diagrams.net" agent="Mozilla/5.0 (Windows NT 10.0; Win64; x64) AppleWebKit/537.36 (KHTML, like Gecko) Chrome/128.0.0.0 Safari/537.36" version="24.7.11">
  <diagram name="Page-1" id="W7Z7kchylPRh4NHE95_o">
    <mxGraphModel dx="1050" dy="557" grid="1" gridSize="10" guides="1" tooltips="1" connect="1" arrows="1" fold="1" page="1" pageScale="1" pageWidth="850" pageHeight="1100" background="#ffffff" math="0" shadow="1">
      <root>
        <mxCell id="0" />
        <mxCell id="1" parent="0" />
        <mxCell id="uW6Slytk5kO-GJP7YJL2-1" value="" style="shape=image;verticalLabelPosition=bottom;labelBackgroundColor=none;verticalAlign=top;aspect=fixed;imageAspect=0;image=data:image/png,iVBORw0KGgoAAAANSUhEUgAAAjAAAAS6CAYAAABEClPrAAAAAXNSR0IArs4c6QAAAARnQU1BAACxjwv8YQUAAAAJcEhZcwAAFxEAABcRAcom8z8AAK8cSURBVHhe7N0HmBNV28bxjy6IXbAAotgbKmJDwYoNe+++vvbeFbuivvZesffeOwo2VBR7FysoCoIFFaVzvuc+zODsZLKbkN1kJvv/Xdd9wclOskk2O+fZM2fO/B8AAAAAAAAAAAAAAAAAAAAAAAAAAAAAAAAAAAAAAAAAAAAAAAAAAAAAAAAAAAAAAADQeLS3LG/pYelt2cKytWUbQiqQrSybW9azrGrpYpndAgBo5Oa19LScY3nC8r7lR8uE5s2bu9lmm821bt3atWnThpCyR5+9li1buiZNmky3z+Tvlq8sr1put/zXsoSlpQUA0Ahoh68RlossIy1/zzfffK579+5u/fXXd/vuu6/r37+/e+WVV9yXX37pRo4c6X788UdCyp7vv//effDBB+6xxx5zZ555pttyyy1dz5493TLLLOPsc6v8annNsptFxQwAoAq1sGxvec4ybfbZZ3dbbLGFu/DCC92bb77pxo8f74AsUFH90EMPuSOPPNItt9xyYTHzneV/lmUtAIAqsYHlGcuULl26uGOOOcZ9/vnnbuLEiUGXAGTT2LFj3f333+8233xzp8Oe9hn/2XK6pZ0FAJBR81kusEyYf/753VFHHeW+++67YNcPVJdHH33UbbLJJuGIzNuWzSwAgIxZzfKixW233Xbu3XffDXbzQPX6559/3NVXX+06dOigIuYfyxkWJvoCQEbsZBkxzzzzuGuuucZNnjw52L0DjYMm//bp0yccjbnPoiUCAAAptodlYufOnd2TTz4Z7M6BxkejMQcffHBYxLxgWdACAEihbS2/L7XUUu6tt94KduNA46XRx1NPPTUsYrTWEZN7ASBl1rH82qlTJzdkyJBg9w1ADj/88LCI0SJ4zS0AgBToZHmvbdu27umnnw522QBCkyZNcrvuumtYxJyoXxoAQOXdaHGXXHJJsLsGEDdq1Ci36qqrqoD5w7KmfnEAAJWznWXCxhtvzMJ0QB2eeeYZ16JFCxUxAy2t9QsEACg/XZn31QUWWIBJu0CBDj300PBQ0u76JQIAlN+OFnfEEUcEu2YAddFlNNq3b68C5j3LHPpFAgCUj1YXfUkXZRw6dGiwawZQl+nTp4ejMNMsusApAKCMVrGM23vvvYPdMoBC6Qrsc889t4qY6y1N9QsFACiPM5s0aeLuuOOOYJcMoFCa8L7aaqupgPnVspT/jQIANDidPTFQk3c//vjjYJcMoBjHHXecChhlV/1SAQAanv5i/GGttdZyU6ZMCXbHAIrx8ssvhwXMufqlAgA0PF024J+DDjoo2BUDKNZ3333n2rVrpwLmHv9bBQBocJtb3FVXXRXsigEUa+zYseHKvIP8bxUAoMHtYHGPPPJIsCsGUKzx48e73r17q4B51/9WAQAa3C4W9/zzzwe7YgDF0gUet9xySxUwn/jfKgBAg9NZE+6FF14IdsUAihUpYD71v1UAgAZHAQOUiAIGAMqPAgYoEQUMAJQfBQxQIgoYACg/ChigRBQwAFB+FDBAiShgAKD8KGCAElHAAED5UcAAJaKAAYDyo4ABSkQBAwDlRwEDlIgCBgDKjwIGKBEFDACUHwUMUCIKGAAoPwoYoEQUMABQfhQwQIkoYACg/ChggBJRwABA+VHAACWigAGA8qOAAUpEAQMA5UcBA5SIAgYAyo8CBigRBQwAlB8FDFAiChgAKD8KGKBEFDAAUH4UMECJKGAAoPwoYIASUcAAQPlRwAAlooABgPKjgAFKRAEDAOVHAQOUiAIGAMqPAgYoEQUMAJQfBQxQIgoYACg/ChigRBQwAFB+FDBAiShgAKD8KGCAElHAAED5UcAAJUpRAdPUsljwLwBUNQoYoEQpKGBaWTa2PGI50EIBA6DqUcAAJapgATOPZSfLC5aplo8tc1oAoOpRwAAlqkAB08lynGWoRd83zJ4WAGgUKGCAEpWxgFnVco7lO0u0cFEetuhQEgA0ChQwQInKUMBsYLnZ8rslXrgo4y1rWwCg0aCAAUrUQAXMXJadLc9Y/rbEi5ZobrU0t2gEhhCSrrS2NLOgnlHAACWq5wJGhcuJlnct8UIlX96zvGR5jRCSurxpYX5aA6CAKaMxY8a4qVOnBq3q8euvvwb/a5zquYBpadnN8rZloiVerCTle4u+9+eEkNTlM8sBllJpRHarGf+FUMCUwbfffuuOPPJIt9dee7mJEycGt2bfhx9+6F/T2WefHdzSODXQISSt5bKJ5U7LOEu8aInmDguA6jW3RcXQMMu8ugEUMA3q559/dhdddJHr1KmT72g22GADN23atOCr2fX999+7k046ybVv396/rmOPPTb4SuNUhkm8S1suswy3hEVLNFoDRgvZAahOB1nC3/ejdAMoYBqERlnuuusu17Vr12gn4zbffPNMH0IaN26cu+yyy1znzp1rvK6+ffsGWzROZShgQh0sJ1nesdT4GViet2j+DIDqonWfdJg4/F3/1rKkpdGjgGkAI0aMyOnklawXMEOHDnWzzTZbzuuigClbARNqZ9ndMsgywRL+LHQZAQDV5QzLzP1tkGstjR4FTAPQnJcll1wy/oHLfAEzZMgQN8888+S8LgqYshcwUZtZ7rHoVGv9ZbaABUB1WMUy1hLf72pe3JqWRo0CpgHoUMtyyy0X/8C5bbbZJtgimz7//HM333zz5byus846K9iicapwARPSzuwGy8GWJroBQObpdzpnnxtkoEVnLTZaFDBm5MiR7o477nCXXHKJO/30092JJ57oTjjhBHfKKae4c88911199dXu+eefD7bO780333S33HKLu/DCC92CCy6Y84HTnJibbrrJb6O8/PLLwT2TaRKw5tLoeZ155pkzn5cm0OrMH81H0dfHjh0b3CO/v/76yz3wwAMzv7dy++23u1GjRvmvqxO+55573BlnnOG/h173gw8+6P7880/30ksv+e1PPfVUN/vss+e8Lo0sRR/3vffe84/ZWKSkgAnpYo5cjRrIvl6W2s5AnGzZ0dJoNeoCRiMKhx9+eOJoSTwtWrRwG220kbvmmmt8h5Vk3333Tbxvvmy11VZu+vTpwb3/NXz4cH9mz0orrZR4v3hWXnllX2yFxUgSHdaaa665cu47ePBg98svv7hdd90152vK7rvv7nr27Jn4tXxpbGclpayAAZB9WrlXq3Dn7F9j0RXo57M0So22gBkwYIBbYoklkj4QdWbnnXdOHPU44ogjErfPl9122y2ngHnrrbdyzl4qNGuvvbYvypKoKFp00UVrbD/33HO7xx9/3G299dY1bo9Gh72UpK/ly2mnnRZ818aBAgZAPdvCMsmSs39NiFbubpQaZQGjQxwLL7xw0gfBNWnSxDVv3tyPuDRt2jRxG0WjLXH77bdf4rb5osIhWsB8/fXXbplllkncVtFz0nNL+lqY7bbbzk2ePDl4xH8lFTA6o6i276fceuutbosttkj8Wr4cd9xxwXdtHChgANSj2S1vWOL71ulB4rdrkq/Wimp0GmUBc+CBB8Y/AH7OysEHH+zniWjOh+anPPHEE35UJWk+iwodzRmJuv766/18kPXXXz9xrogWfttss838NormyoQFjP5NGsFp1qyZ7xw110XPSc/t/vvv9yvgtm3bNmd7PdfvvvvOP2ZUUgFTV3QIS4vWnXfeef759ujRwxdR8e0WX3zxma9JufPOO4Pv2jhQwACoR/+1RPexOkx0ruUDy28WrQWla59pDky4TaM8rbrRFTBaZG7NNdeMfjj8SMuNN94YbJHrxRdfnHn2jbZVcaLTiQ855JDE06I1p2TZZZet8T0UzXnJRxN2N9lkE39Yp1WrVjPvo6JqypQpwVY1aSJv9PEVjdCoyImrq4BZaKGF3PHHH+9uuOEGd8455/ji5X//+19w7xk+/vjjxLOQNPG3MaOAAVBPFrGMtGh/MsSyr6W9RV6x/GHRZQVaWHSpES2hMN6i7be0NCqNroAZP368W3XVVWd2vopGU3TYQ518Pjq7RiMmOtNIIxw//PCDL1TyTcJdeumla3wPRaMT+S4loE5Qk3A14vHll1+6hx9+2B1zzDHum2++CbbI9c477yQuLBcfGZLaCpiOHTv6uTdRukDj33//HbRm0Dbzzjtvzv1ZB4YCBkDJNHH3EIuuXt3HojMKQ20sr1r+siyqGwK6z1KWWy0ahdF2jUajK2A0YqJDPHrd8WhSr+a2XHXVVX4U46effkosUOqiAidfAVMfC9n9/vvv7rXXXvMXiEw6pKMzpeJqK2D69+8fbFU7FW8UMLkoYADUA42qdLU0962aZrPosJEWrOyiGxLoUiON6nIijXIOjA6N6HXXljnmmMNfhLF79+5+3RXNh9HVlwtRnwWMTn9+5ZVX3GOPPeYuvfRS/xiLLbZY4inRYYopYOaff3730UcfBVvVjgImGQUMgAamAkYL1/1jWUI3oJEWMDoFWvNR9NqLSZs2bdyee+7p7rvvPt9p5VNqAaOzkVSEHHDAAf7wTvxx6ormscTlK2B0ynZt68dEUcAko4AB0MC04q4u2KoCRoeMYBplASOa43H00Uf7M4P0HhQTTeTVWjAqCpLMagGj05+16m5tk20Lic5SistXwGhCsy59UAgKmGQUMAAamA4vPWuZaFlGN6ARFzAhnVmj04S1Eu2cc86Z0znXlk033dQv0R83qwVMv379cu4Tj9Zt2Xvvvf31hw466CDXsmXLnG0eeuih4BH/la+AWW+99fyZWYWggElGAQOggamAedqixe2W1w2ggKlBc1x09s/555/vF5lTh1/bXBOdvfTUU08F9/7XrBQwOlVb827i99FaL1og79577/VzYXT2U2jo0KGJ683oGkZx+QoYXR4h35lRcRQwyShgADQwnW30hEVrv6yoG9CICxidXaTRk08++cQ9++yz/qKFcbpNRcK1117revXqldNxK7r4Y1y+AqZPnz55CxidURTfXmu63HzzzcEWuQYNGlRjzZgwxRQwG264YUHzcoQCJhkFDIAGpgu0PmaZYllJN6ARFjAXXXSRL0aUbt26uQ4dOvjDMJqYWxtdfkCTePV+RaMrRMfVNgKTNNqh23bZZZec7du1a1djxCVOhZVGgeL3K+YQUn0UMDpLqzGjgAHQwJpYHrZMs6yiG9AICxgt96/XHM/qq6/uvvjii2CrXLomUNJ8k5tuuinY4l8jR450K6ywQs62q622WmIBo9EgXfU5vr1GYPKtEPz000+7RRZZJOc+SjGTeIspYN59993ESc+ai9OYUcAAKIMHLLoWUnffQuMrYNTZaMl+ve54tL7KKaec4oYMGeKLGR1e0tWadep00siD1onROi1xWmhO68fEt2/durU/Pfqrr77yq+WqKAoLmpNPPjlne0XfVyvyvv32227YsGH++egMKF3KIGl75brrrvOPGVUfBYxO7+7SpUvOY2gUS0WT3jMVXFozpzGhgAFQBvdZtJ9Z3bfQOOfAaAn+pI44jJbn1+RZTZDNd/VnbaNDOElUlORbZ0aHfDRZV/9usMEGM68crcXkVBAl3UdR8aPnpIs7Rm9PmgOj6yfF1UcBo8swrLHGGjmPoejU8vDiko1tRIYCBkAZ6LpH2s+s4VtovJN4NadlnXXWmdkBFxONfiStdhullXOTDjlFo0Xkomuw6CrOSWciJUXbXXDBBYlX1ta1nuLXMaqPAkZ0Paj4Y8Sz7rrr5r0AZTWigAFQBndatJ/p4VtovAWM6FCPLivQo0ePxGsKxaNrJWm9mNdffz14hNpp6f9881SUFVdc0a8KHPXkk0+6tddeO3F7RWvVaP2Z5557zm+v06+Ttnv00Uf910M61JV0SrgOdRVTwEyYMMGdcMIJ/hIE8ccKo+ev7RoLChgAZXC7RfuZnr6Fxl3AhDRaoIJAq+DqlGCNamixuH322cef3nz22Wf705l1dlGxNC9EZz4dfvjh/jH3339/f+aSvtfgwYMTiwd1/jqT6IwzzvCHY/baay932GGH+QX3dJ8ojbTcfffdfnJyGB3a0oTbKJ0yHt9OUcE0Kxes1JwcFX+HHHKIf116zzSP58orr3Tvv/9+sFXjQAEDoAxusWg/s65vgQImC2alwED5UMAAKIMbLdrPrO9boIABSkUBA6AMrrdoP7ORb4ECBigVBQyAMrjWov3Mxr4FChigVBQwAMrgKov2M5v6FihggFJRwAAogyss2s9s7luggAFKRQEDoAwus2g/s4VvgQIGKBUFDIAyuNii/czWvgUKGKBUFDAAyuACi/Yz2/oWKGCAUlHAACiD8yzaz+zgW6CAAUpFAQOgDM6xaD+zo2+BAgYoFQUMgDLoZ9F+ZmffAgUMUCoKGABlcIZF+5ndfAsUMECpKGAAlMFpFu1n9vAtUMAApaKAAVAGJ1u0n9nLt0ABA5SKAgZAGfS1aD/zH98CBQxQKgoYAGVwvEX7mX18CxQwQKkoYACUwTEW7Wf29S1QwAClooABUAZHWbSf2d+3QAEDlIoCBkAZHGHRfuYA3wIFDFAqChgAZXCoRfuZg3wLFDBAqShgAJTBwRbtZw7xLVDAAKWigAFQBjp0pP3MYb4FChigVBQwAMpgP4v2M5oLA0MBA5SIAgZAGfzXov3Mkb4FChigVBQwAMpgb4v2M0f7FihggFJRwAAoA13EUfuZY30LFDBAqShgAJTBbhbtZ3RJARgKGKBEFDAAymAXi/YzJ/oWKGCAUlHAACiDHS3az+iq1DAUMECJKGAAlMH2Fu1nTvYtUMAApaKAAVAG21q0nznVt0ABA5SKAgZAGWxl0X7mdN8CBQxQKgoYAGXQx6L9zJm+BQoYoFQUMADKYDOL9jNn+RYoYIBSUcAAKINNLNrPnO1boIABSkUBA6AMNrJMt5zrW6CAAUpFAQOgDDawTLOc51uggAFKRQEDoAzWtUy1XOBboIABSkUBA6AM1rFMsVzkW6CAAUpFAQOgDHpYVMBc7FuggAFKRQEDoAzWtEyyXOpboIABSkUBA6AMVrOogLnctzCjgHn++eeDXTGAYkUKmE/8bxUA1L9VLRMsV/oWZlye+/HHHw92xQCK9ffff7uNN95YBcx7/rcKAOrfKhYVMFf5Fv5vC4vr379/sCsGUKxff/3VrbHGGipgXva/VQBQ/7pa/rZc41v4v16WiUcddVSwKwZQrBEjRrgOHTqogHnA/1YBQP1bwaIC5jrfwv8tbxm13nrruenTpwe7YwDFGDJkiGvatKkKGNZnANBQlrWMt/T3LfzfHJbBHTt2dF9//XWwOwZQjH79+ql4UfbRLxUANIClLX9ZbvAteBc2a9bMPfDAA8HuGEChpkyZ4nr16qXi5U+LjlEDQENY0qL9zE2+BU/zYMYzDwYo3qeffuratWunAuZeSzP9QgFAA+hi+cNyq2/Ba215Szvhzz77LNgtAyjEqaeeGh4+2ku/TADQQBa1jLPc5luY6VCLO+OMM4LdMoC6/Pjjj65z584qXr6yLKhfJABoIJ0sv1vu8C3MNI/l/cUWW8x9++23we4ZQG3OPffccPTlCP0SAUAD6mBRAXOnb6GG/S1ul112CXbPAPJ555133Jxzzqni5QPLfPoFAoAGtJDlV8s9voUcD7dq1crdddddwW4aQNyff/7pNtpoIxUv/1g29785ANCwdJh6rOV+30IOnQY6on379u69994LdtcAoo455pjw0BGXtQdQLgtYxlge9C0k2soyZeWVV/ZLpAP41xVXXBGuujvQMqd+YQCgDNpbRlse8S3kdaBlas+ePd0333wT7LqBxu366693s88+u4qXIRatyQAA5dLO8pPlcd9CrU62TFtzzTXdhx9+GOzCgcZn2rRp7oILLnDNmzdX8fKZRRdVA4ByUgHzo+Up30KddHroPzq9+uGHHw5250DjMXr0aHfAAQeEc17etCxhAYBy09mOP1ie9S0UZCfLiBYtWjhdbmDUqFHBrh2obs8//7zr1q1bWLxo9UtNogOASlABM8IywLdQsKUsj1nciiuu6G6++WZ/KilQjd5//3237777utatW6tw0V88h1iaWACgUua1fGfRCQRcd61ILSz/tXxscd27d3e33Xab++6774LdPpBdEydOdEOHDnWHH354eHHGvy1asntZCwBUmlbM/8bykqW5bkDxNIx1kuUji1t44YVd37593f333+9GjhwZdAdA+k2dOtUNGTLEXXvttW6LLbYIDxVNsDxg6W0BgLQIC5hXLC11A2adVgXUFXiftPxscV26dHF9+vRxp512mrvjjjvcgAED/F+1n376qRs2bJj78ssvCSl7vvjiC/fBBx+4wYMHu8cee8xdddVVfmLuaqut5uadd14VLVMsKsgvsaxp4XARgLSZy/Kl5TXLbLoB9WNpy3GWqy0a3tJfseFftK5JkyaEVDTRz2MQHUu+13K+ZXtLGwsApJUKmGEWrUPF/qqBtLWsatnS8h/L4ZbjLTrsREgl0tdyjEULNO5i2dCyuAUAskIrf39uGWpRPwsAAJB6c1g+tbxr4TImAAAgEzTq8onlA8vcugEAACDtZrfoZAMtZaI1YQAAAFJPE3c1+qLDSPPrBgAAgLRrbXnf8oWFy5oAAIBM0NovmsD7lWUh3QAAAJB2rSxvW7Qa78K6AQAAIO1UwGgNmOGWTroBAAAg7XT9ozctukL+IroBAAAg7VpY3rD8ZFlMNwAAAKRdc4su5KiLJ3fRDQAAAGmnAuZVyy+WJXQDAABA2jWzvGL5zbK0bgAAAEi7ppaXLH9YltENAAAAadfEMsgy3rK8bgAAAMiCgZYJlhV9CwAAIAOet0yyrORbAAAAGTDAMs2yim8BAABkwLMWZ1nVtwAAADLgaYsKmO6+BQAAkAFPWlTArOFbAAAAGfCERQXMmr4FAACQAY9ZVMCs7VsAAAAZ8KhFBUxP3wIAAMiAhy0qYNb1LQAAgAx40KICZn3fAgAAyIAHLCpgNvAtAACADLjHogKmt28BAABkwJ0WFTCb+BaQci0tHSzz+xYAoLG6zaICZjPfAlKuh0WXT9cCRgCAxutmiwqYPr4FpJzO99cHdqBvAQAaq/4W9Qdb+RaQcutY9IF9zrcAAI3VtRb1B1v7FpByFDAAALnSov5gW98CUo4CBgAgl1vUH2zvW0DKUcAAAORii/qDnXwLSDkKGACAXGBRf7CzbwEpRwEDAJD/WdQf7OZbQMpRwAAApJ9F/cEevgWkHAUMAEDOsKg/2Mu3gJSjgAEAyKkW9Qf/8S0g5ShgAABykkX9wX99C0g5ChgAgJxgUX+wn28BKUcBAwCQYyzqDw70LSDlKGAAAHKkRf3Bwb4FpBwFDABADrWoP9C/QOpRwAAA5CCL+oMjfAtIOQoYAIDsb1F/oENJQOpRwAAARKdPqz842reAlKOAAQDI3hb1B8f5FpByFDAAANndov5A68EAqUcBAwCQXSzqD/r6FpByFDAAANnRov7gZN8CUo4CBgAg21rUH+iijkDqUcAAAGQri/qD030LSDkKGACA9LGoPzjLt4CUo4ABAMimFvUHZ/sWkHIUMAAA2cii/uAc3wJSjgIGACDrW9QfnOdbQMpRwAAApJdF/cEFvgWkHAUMAEB6WNQfXORbQMpRwAAAZA2L+oNLfQtIOQoYAIB0t6g/uMy3gJSjgAEAyCoW9QdX+BaQchQwAABZ0aL+4GrfAlKOAgYAIMtZ1B9c61tAylHAAABkaYv6g+t8C0g5ChgAgCxhUX9wg28BKUcBAwCQxS3qD27yLSDlKGAAANLFov7gFt8CUo4CBgAgi1nUH9zuW0DKUcAAAEQFzDTLHb4FpBwFDABAOlumWO72LSDlKGAAAKICZpLlXt8CUo4CBgAgi1gmWO73LSDlKGAAANLJMt7ykG8BKUcBAwCQjpY/LY/4FpByFDAAAOlg+d3ymG8BKUcBAwCQhS2/Wp7wLSDlKGAAAKIC5hfLk74FpBwFDABAFrT8bHnG0kQ3AGlGAQMAEBUwP1nUH1DAIPUoYAAA0t4y0vKChQIGqUcBAwAQFTDfWwZZKGCQehQwAABpZxluedHSVDcAaUYBAwCQ+S3fWF6xUMAg9ShgAAAyn+Ury2ALBQxSjwIGACDzWoZZXrdQwCD1KGAAADKP5XPLm5ZmugFIMwoYAIDMbfnEMtRCAYPUo4ABAIgKmA8t71goYJB6FDAAAJnL8r7lPUtz3QCkGQUMAEDmtLxrURFDAYPUo4ABAMgclrctH1koYJB6FDAAAGlrecuiibwUMEg9ChgAgMxuGWLRqdQtdAOQZhQwAABpY3ndosXsKGCQehQwAABpbXnVossJUMAg9ShgAAAym+Vliy7o2FI3AGlGAQMAEBUwgyzDLRQwSD0KGACAtLIMtIywUMAg9ShgAACiomWAZWTwfyDVKGAAAKKJu89YfrJoNAZINQoYAIBo8bqnLKMtFDBIPQoYAIDoCtRPWMZYKGCQehQwAABpannM8otFZyQBqUYBAwCQJpZHLL9ZKGCQehQwAABRAfOg5Q8LBQxSjwIGABC63/KXRddFAlKNAgYAELrXMt4yh28BKUYBAwAI3W352zKvbwEpRgEDAAjdZfnH0s63gBSjgAEAhG63TLAs5FtAilHAAABCt1kmWjr6FpBiFDAAgNAtlkmWzr4FpBgFDAAgdLNlsmVx3wJSjAIGABC60TLFsrRvASlGAQMACPW3TLMs51tAilHAAABC11tUwHT1LSDFKGAAAKFrLeoTuvkWkGIUMACA0NUW9Qmr+RaQYhQwAIDQlRb1CWv5FpBiFDAAgNAVFvUJPX0LSDEKGABA6DKL+oT1fAtIMQoYAEDoEov6hI18C0gxChgAQOgii/qETXwLSDEKGABA6AKL+oQ+vgWkGAUMACB0vkV9wta+BaQYBQwAIPQ/i/qE7XwLSDEKGABA6FyL+oQdfQtIMQoYAEDobIv6hN18C0gxChgAQOgsi/qEPX0LSDEKGABA6AyL+oR9fAtIMQoYAEDoNIv6hP18C0gxChgAQOgUi/qEA30LSDEKGABA6GSL+oTDfAtIMQoYAECor0V9whG+BaQYBQwAIHSiRX3Csb4FpBgFDAAgdLxFfcIJvgWkGAUMACB0jEV9gubCABU3n6XjjP/mqKuAaWlZxtLctwAA1exoi/oEnU4NVNw8ljstV1lW0A0R+QqYeS27WgZadrc0tQAAqtuRFvUJWpEXSIV9LfpQ/mZRMbOhRbpbdPtTvjVjtOY4yxCLbv/QMrcFAFD9Drdo36+LOgKpoENAD1n0wVT+sjxpOSdov27RB/bLoK1MtvS2AAAaB63/ov3/+b4FpERPy0RLWKDUlUctzSwAgMbhEIv2/xf7FpAimgcTL1SS8rNlJQsAoPE4yKI+4HLfAlJEZxSpOIkXLPFcZgEANC66BpL6AP2xC6ROeLn0fPnGspQFANC47G9RP3CdbwEp084yzBIvXMJoHQAAQOMTnrF6g28BKRR+SOPRadM6lRoA0Pj8x6K+4CbfAlKojeU1S7yA2ckCAGic9rSoL7jZt4CU2tryjyUsXrQab2sLAKBx2s2i/uBW3wJS7H6LPqzjLb10AwCg0drFoj7hNt8CUkxFyzTLA5YmugEA0GhpGoEKmDt8C0i5oyyrzvgvAKAR296iAuYu3wIAAMiAbSwqYO7xLQAAgAzY0qIC5l7fAgAAyIDNLSpg7vMtAACADNjUogJGJ3YAAABkQm+LCpiHfAsAACADNrCogHnEtwAAADJgXYsKmEd9CwAAIAPWsaiAedy3AAAAMqCHRQXMk74FAACQAWtadHmZp3wLAAAgA1azTLY841sAAAAZ0M0y0fKcbwEAAGTASpZ/LAN8CwAAIANWsIy3vGBpohtQeXNaNDlpbYtmWROSpejURn1+57YAQENZ1vKnZaClqW5A5e1v0alhhGQ1Iy0dLADQUJa2jLO8aGmmG1B5V7Zo0cLttdde7vTTT3ennHIKIanPaaed5g477DDXunVrFTAckwbQ0Jaw/Gp5yUIBkwKzWZ5ZYokl3N9//+2ALBkyZIhr1qyZCpgL/KcZABrOYpaxlpctzXUDKquT5adtttkm6BKA7Ojbt294CGlXfZgBoAEtYvnZ8qqlhW5AZW1u8YeOgCyZPHmyW2eddVS8aFLd8vowA0AD6mgZZXnN0lI3oLKutbiHHnoo6BaAbBg5cqRbbLHFVMA8YWmlDzMANKCFLD9a3rCwz6kwVZBD2rVr54YNGxZ0C0A2DBgwwM0222wqYE72n2YAaFjtLT9Yhlg0fxQVtKhl+O677+6mTp0adAtANuiwp31+dWG1nfVhBoAGNp9luOUtSxvdgMrZxjLpoosuCroEIBsmTZrkNt10UxUwYywr6sMMAA1Mi2V+axlqoYCpsAu1/svDDz8cdAtANnzxxRdu4YUXVgHztoWzAQCUwxyWry3vWGbXDagM/SBeXWCBBdzXX38ddAtANrz44ouuefPmKmDO859mAGh4GnX50vKepa1uQGXotNOxvXr1ctOmTQu6BSAbLrvsMhUvUy299WEGgDLQxN0vLB9YdA1BVMgmlmnnn39+0CUA2bH++uurgNGKmEvpwwwAZaAzdz+1fGihgKmg0zUE//LLLwddApANw4cPd/PNN58KGC0mpUOhAFAOuv7Rx0G4+n2F6DLgb2oS5Jdffhl0C0A2aNK5Jp/bZ/hC/2kGgPLR6ItGYShgKmRZy68bb7yx++eff4JuAciGc889V8XLFMt2+jADQBm9b/ncMq9voez2sEzj+kfImunTp7s99thDBcx3li76MANAGb1r0UReCpgKOaNVq1bumWeeCboFIBu++eYbt8gii6iAGWzhYmoAyk1rT+lUaq3KizLT/JdHllxySffTTz8F3QKQDQ8++KCKF+VmfZgBoMzetHxlmd+3UFZa/+XX9dZbz02ZMiXoFoBsCK5/pDD/BUAl6ErUWo23nW+hrHa3uKOOOiroEoDs2HrrrVW8jLYsrA8zAJSZlm/Q9ZAW8C2UlU49dS+88ELQJeQaOHCgu/TSS/1qp2GuueYa9/PPPwdboKH8+eefwf8Q99dff7kuXbqogHnGwvwXAJXwikUnESzoWyirZzUJcvTo0UG3kGvPPfcMh+lrZOjQocEWqG+vvvqq22uvvdyzzz4b3II4TToP1n+52AIAlfCSZYSFUeAy02lfI7bbbjs3efLkoFvIddBBB+UUL3POOad77733gi1QX/SeHnzwwa5169b+fX7ssceCryDu0EMPDT+PB1gAoBIGWlTAdPAtlM2ulqknnXRS0CUk23///WcWLmHUwb777rvBFijVyJEj3Yknnuh0NfDwPdbowpNPPhlsgSgV3Fp40d4nzX/RRHQAqITnLT9YOvkWyuamJk2auDvuuCPoFpIddthhTtdJ0loxSsuWLV27du3c+++/H2yBUl155ZUzC5cwep8pYJJ9//33bumll9b79LQFACrlOctIyyK+hbJoZRm06KKL+ovh1eaLL75wAwYMcIMGDfLRpN5XXnmFCab16JJLLqGAKYIuOhrMfznPAgCVopMIfrIs6lsoi8Utw7fddtugS0AlXXXVVYkFjApH5Dr//PPD90mHQQGgUp6yjLIs5lsoi96WaWeeeWbQJeQ3atQo99lnn7nPP/98ZoYNG+YmTJgQbPEvLYb37bff1theIzg65TVqxIgR7tFHH3Wnnnqqn7Sqf3VVYd1eCI3+6HHD76Hv9/XXX9eYjKxt3njjDX8K+CGHHOKOPfZYd8stt/htC120b8yYMTVei/6vK3bXddFLnWIevZ+i+0Xfs0mTJvnn/NVXXznNQ7KfR41ohOG6667zy+Xr/nrPx48fH9y7OH/88UfO8ykleqzazlxrSBMnTnTrrruu3qNJlhUsAFApj1t+tmhQAGVyjsU98sgjQbeQ33HHHefmn39+P+8ljNbf+Oijj4It/qUOX51LdPsOHTr404JFHZ9OD15wwQX9CIOeQxh12Lr9v//9r++0a6NDK9o2/B76fqussor79ddffZHQv39/P0dCZ0tFv4eibXv27OlefPHF4NHyO/vss2u8Fv1/iSWWcG+//XawRTIVhtH7KbpfdN6QCpKVVlrJtW/f3rVt2zbneWp+kp6/Jvbq/p06dfKH72aFisP48ykleqy6Jn83FB3yXGihhfQeDbG0tgBApTxqUQGzhG+hwbWxDNWZRBrFqMt+++2X07lqMm/SWUgarVlmmWVqbNu0aVM/d+b++++vcZZNbencubO/Tz4PPPBA4n30nPbee++cryVFr0GFhkZC8lHxFr9fmzZt3GuvvRZskezoo4/OuZ/e77feeivYwrlPP/3UFwPx7fJF7+NTTz0V3Ls4d955Z+JjlhKNnFWCPhf62dlz6GsBgEp6yDLWspRvocF1sYzedNNN/XB8XYpZB0aHFbp27Vpj29lnn9316dNn5tomhWbVVVf1IzpJHnroIX9mVHR7jWT06NGjxm2FREXK9OnTg0euqW/fvjnbzzPPPP7QVG2OP/74nPvNPffcNUZuPv7448QRotryxBNPBPcuzj333JP4eKVEZ6dVgkbF7PtPt2xhAYBKesDyq2Vp30KD28wyWRNHC1FqARON/nLeaaed/JyXM844wx+GWHPNNRO3Ve6+++7gkWtKKmCimWuuufxIzGmnnea/j9ZYWWuttRK31aGre++9N3jkmhqygNHaL1qMbY899nDdunXL2V4jLr169fIrIe+yyy7+9czqqesNMQKjz0W5TZ061W222Wb6/lr/ZSULAFTSfRYVMMv4Fhrc/9T5F7pMfX0VMJqzopGA+GjHjz/+6DbaaKPE+xx++OHBVjXVVsAsvvjifpn5uN9++81P5k26z+qrr+4nusY1ZAETpetLxbevz9Oo9bPSYa1jjjmmXnLEEUf4SdjlponQuvSFvT+6hP3sFgCopHssv1uW8y00KL/+S8eOHf3ZJIWojwJGE1LVSefz3HPPhet61MjOO++ceMZQvgJGh6tqO8yis6G22GKLnPtpZOjpp58OtvpXuQqYK664Imd7FTBJhVhjpksraGTK3p/rLABQaXdaxllYEbwMulpG6yycQk8lro8CRmfQ1FYw6YwmdfDx+2mezt9//x1s9a98BcxWW23lDzPU5vHHHw8ngdbIkUceGWzxr2oZgakWl19+ud6bKZYtLQBQabdb/rSs6FtoUNtbfAdbqPooYDTPpbY1THRoQKNC8fttuOGGiffLV8BcfPHFwRb5aZ2apO+la+vEL2pZLQWMijqdXl5f0To4tV0AtCHoNey44456b360cN0RAGlwi+UviwYH0MBO1KEaLcVeqPooYOpa8feHH35wyy+/fM79NDem0AJGh6nuuuuuYIv8tFbMUkstVeO+yjrrrOPGjRsXbDVDtRQwWtF3jTXWqLdozlAhxWJ90lyp+eabT++N5r9oKQAAqLSbLOMtK/sWGkxzy3M6nKMzYApVHwWMzqKpTX0UMJoboUnCddFk3qQCRqdg62tRs1rAnHDCCTn3q2QBc/vtt+c8fqnRVcrLSXObgu99hQUA0uAGy9+WVXwLDUbXavhjvfXWq3Mp/Kj6KGA0Gbc29TUCc+uttwZb5JevgFl77bXd77//Hmw1Q74CZsiQIcEWyXTZgvj9KlnANMQ6MPnOEGsop59+evi9t7MAQBpcb5lgWdW30GB2sRS9BHxWChjlnHPOCbbIT6NPugp3/L76XvGF/ZIKGBUida3Eu88++yTer1IFzB133JHz+KXmwAMPDB69PIL5Lz9YWPESQFpcY5lo6e5baDAXaJSi2NVcs1TAbLLJJnWuLvz666/75x+/rxaVi9MCePHtdCmBF154IdgimVYejt+vkgWMrvukCdG9e/f2k5VLzQYbbOCuueaa4NEbnlZkXm655fS+PGdpYQGANLjKMtmyum+hwTyiCwrqYnjFyFIBo8sVJK3nEpVUlGhisy54GHfKKafkbFvXXBtdXyrpLKfaChhdMTu+vQqY+loHRmfw6LBh0hlFsxKd2l7Os5D0swnWf+lvAYC00Jw8Le2whm+hQSxq+UaLuOW77k8+WSpglBVXXNG98847wZY1qfBIGn3R9x47dmyw1b+uu+66nG2VLbfcMnHl3p9//tmvRZN0n9oKGI1mxLdv1qxZYlHVGOmwp70nuv7R/hYASItLLVMta/kWGsSellmaeJm1AkbRcvPnnXeeP11ch4x0GvFRRx3lD/8kba8F0pLobCOt7pt0n+22284viqfHHzx4sOvfv78/xThpW6W2AkbXYtLhvfh9dCjqpZdecq+++qo/RVxr2DQ2GunZeuut9X78YulsAYC0uNgyzdLDt9AgLtEQ/AMPPBB0C4XLSgGjAkCjFtHbColO8U5a7Vd0u55D0v1qi85y0tlK0dtqK2DefPPNgq7Wfd999wX3aDy0bs+SSy6p1z/I0sQCAGlxgUX7p3V8C/VO1z96dqGFFvKHOIqls03s/jXStm3bvAWMDuHEt9cVqGujAiaYpFkjxazEqwJN66/o6s3R22vLbrvt5ieI1uatt95ynTt3Trx/UnR1aV2zp0OHDjVuV9GXr4DR4ShNsI1un5RCzrKqNjocGFwn638WAEiT8yzaP/X0LdS7+SwjZmX+i+y77741OlFF1xJ69913gy3+NWrUKLfMMsvkbK/DLbX5/vvvw7+ya6RXr15FHULS6cI6C6lfv36uffv2OV8Ps9hii7mrrroq8bGTaN0XneGU9Fhh9Px1UUZNcv3000/dXHPNVePrGmFRMZSP7lPbISgl6UypahfMf1H2sgBAmpxj0f6pl2+h3q1vmXbmmWcGXUJxPvzwQz/XQ6dfK/q/zo6JL7svKh407yS+fb5JtSGdIaO5HvH7aQ5KMVejvv7664MtnPvss8/cbbfd5g9fLb300m7VVVf1c4AeffRR99133wVbFU6Hk/QcL7roIn8qsR5Tq/fqTCW9HyrCQloQT/Nuwtejf5999tmchfLifvnlF3/qtObrdOvWzX8PjczozCm95q+//jrYsnHQ2VNrrbWWfra61gjrLABIm34W7aPW8y3Uu2stBS2znxWFFDDIvhEjRrguXbroZzvA0toCAGlypkX7KA0UoJ5p/stbOpzy8ccfB91C9lHANA4DBw4MJzfrrxwASJvTLNpHbehbqFdLWL7bZpttEg/FZBUFTOMQLPCnNRZ0GQwASJtTLNpPbeRbqFebWSZX29krFDDVb9KkSeGigOMsXS0AkDZ9LdpPbexbqFd91dFr4mo1oYCpfpqw3K5dO/1cv7Aw/wVAGp1o0X5qE99CvWljeUkLqA0bNizoFqqDJiTba8uJTmNGdXj++efD6x9dZAGANDreov2UjnagHi1r+WPllVf2w/HVRMv3b7vttv4QQzQ6VRnV4ZJLLtFOQdc/YnY/gLQ62qJ91ea+hXqjinD6//73v6BLALJDCy/a53e0ZWl9mAEghY60aF+1hW+h3pymIXhdaBDIkpEjR/oLctpn+DXLnP7TDADpc4RF+6otfQv1ZmDHjh3dl19+GXQLQDY8+OCD4STtG2Z8lAEglQ61aF+1tW+hXixp+Wn99dcv+Ho/QFrotH/7/OoS9XvqwwwAKXWwRfurbXwL9WJ3y7Qjjjgi6BKAbJg2bZrba6+9tEP43rKIPswAkFIHWLS/2t63UC/ObNmypXvssceCbgHIhh9//NFfLdw+w69amvtPMwCk034W7a929i2UrIXlIV0Eb8yYMUG3AGTDc889p52B0l8fZgBIsX0t2l/t5lso2WKW0RtuuKGbOnVq0C0A2XD66aeHBcyu+jADQIr9x6L9FfP16okmE7mjjjoq6BKA7Nh66621M/jdoguRAkCa7W3RPkuFDOrBxZaqu/4Rqp/OmFtuueW0M3jWMps+zACQYhp50T5Lc2FQD55eeOGF3bfffht0C0A2vPDCC65169baGagIB4C00xm/2mcd6FsoyXyWL7fffns3ZcqUoFsAsuH444/XjkA5SB9mAEg5zdXTPusQ30JJtrNMOumkk4IuAcgGFdybb765dgRjLV31YQaAlNPp09pv6ZICKNEVTZo0cbfddlvQLQDZ8MMPP7illlpKO4LBlqb+0wwA6bajRfstXZUaJWhteX6hhRZy33zzTdAtANnw7rvvulatWmlHcIH/NANA+mkFXu23jvctzDItuz68d+/eQZcAZMdVV12lnYDCipYAsmJbi/ZbfX0Ls2wNy9Qzzzwz6BKAbND1j3r27KmdwCRLN32YASAD/LprllN9C7PsdAvrvyBzRowY4RZYYAHtBN6yzKUPMwBkwFYW7bvO8C3MEl3/6IM2bdq4jz76KOgWgGyIrP9ylv80A0A29LFo39XPtzBLtOz6GF3/6J9//gm6BSAbLr74Yu0Aplp0PBkAsiIsYM71LcySLSwTzz333KBLALJh+vTpbpdddtEOYLSF9V8AZMmmFu2/OHuyBH1btGjhHn/88aBbALLh66+/dp06ddIO4GPL7P7TDADZsLFF+y8ufzKLmlse7dChg/v888+DbgHIhieeeEK//Mpd+jADQIZsZNH+63LfQtFWsPzStWtXN2HChKBbALLhsssuCwsYHQYFgCzZwKL911W+haLp+kfu0EMPDboEIDuC+S8/WxbWhxkAMmR9i/Zh1/oWinZS06ZN3auvvhp0CUA2/P77765z58765df1j9r6TzMAZEcvi/ZhN/gWivaU5r+MHj066BaAbHj66aedJp/bZ/g6SxP/aQaA7FjHon3YLb6FoixgGbXBBhu4v//+O+gWgGw4+eST9Yuv7KcPMwBkzNoW7cNu8y0URRe+m3rkkUcGXQKQHcH8l58sy+rDDAAZs5ZF+zHOopwFF2r+y5133hl0CUA26JDniiuuqF/8ARYOHwHIIl1EWfuxe30LBdNO/6HFF1/cXwwPyJIBAwZE578AQBatZtF+7EELf4gVYRHLV3369Am6BCA7zj77bP3SK/vrwwwAGdTNov3YIxYKmCLoMt7TjzrqqKBLALJhypQpbsstt9Qv/T+WpfVhBoAMWsWifdkTlqa6AYU5z+LuvffeoFsAsuG3335zSy+9tH7ptf5LK32YASCDVrJoX/a0pZluQN1aWl6Ya6653HfffRd0C0A2vPPOO2722WfXLz2XoAeQZStatC/TyQgUMAWa3/LNZptt5iZPnhx0C5Bp06a5UaNG+ascf/zxx+6jjz7yF7nUROdx48YFW9U/nVWj7xXNJ5984saPHx9skW0aNVGxrNcUvqcjR450EydODLYo3BlnnKFfeGUvfZgBIKOWt2hf9oJFF1ZGAdazTOzXr1/QJUAd7E033eR23HFHt9xyy7l555037CRdq1atXMeOHV2PHj2c1sx5/fXXg3vVn1NPPXXm9wvTunVr99JLLwVbZNNbb73l37M11ljDLbDAAk6n7eu1zTbbbK5Lly5uiy22cFdddZUbO3ZscI/aTZ061WnhRXuMPyw6BREAsmo5i/ZnL1koYAp0icXdddddQbfQuD344IPhmiIFZZ555nGHHHKI++WXX4JHKN1pp52W832yXMBoZefjjjvOzTfffDmvKymrrLKKGzRoUHDv/IYPH+6WXHJJ3ec1SxsLAGSVTkLQ/kzz+VroBtRO819ead++vfvggw+CbqHxuuCCC1yzZs1qdKaFpnfv3v4wSH04/fTTcx6/bdu27uWXXw62yA6NZu266645r6euqNh56KGHgkdJ9sorr/jRG9v+MgsAZNlSFu3P3rCob0YdlrR8t9FGG/nTURuzJ554wh8esvdjlrPXXnvVyzyiaipgInNUio4K66FDhwaPlOuWW27RdlMtugwGAGTZ4hbt096ycEZlAda3TNKF8BozHeLQCIq9FzlZcMEF3c477+z23Xdfnz333NMtscQSiduqANKqsKWqlgLm/fffd+3atct5LVo1d/PNN5/5nu6000415hlFo68nUcG9/fbba5txlq4WAMiyLhbt0961UMAU4NDmzZu7xx9/POgWGqeBAwe6li1b1ug4lZVWWskNGTIk2OpfX375pVt//fVztlcOPfTQYKtZVy0FTGSF3JlR8XLxxRe76dOnB1vN8Mgjj/gRl/j2muPy448/Blv9S2cx6dR/2+Zzy1wWAMiyRS3ap31gmU03ID9VeC/NPffc7rPPPgu6hfr3zTffuBdeeME98MADPs8884yfb6NRj7RIOutHqe3ClnpNmlgbv48Ox5V6GKnQAmbChAnu1Vdf9e/rc88953766afgK5WnEZK1114753X897//DbbIdfDBB+dsP+ecc7rXXnst2OJfzz//fLjNFRYAyDpd0kf7tE8sFDB10PyXCauuumq9ry/y9NNP+5EInRarwy1NmjSZ2SEp+kt7nXXWcbvvvrufOJv0F3ZIHZUmgdZn7r777uDRnR8J0HPVYmht2rTxh4E0kbdDhw7u008/DbbKpRGApZZaqsbrUnr27DlL65lE5StgwlO233zzTXfEEUe4ddddN5zE6qOzp3bbbTd3/fXX1/ozVfF45plnJr43sxoVJtFJzCpgnnzySXfNNde4c8891x144IH+Z17baN8555xT4zUrmsz77rvvBlv865JLLgm36WMBgKzraNE+TaPKrXUD8tvSMk2dZX1RIaI5IkmHY2rLsssu609fThLpqOotOu05SovS6blrtOi9997zo0TKX3/9FWyRS9vq6t3xx9Z8GS2AV4qkAkYjZTrUdeWVVxZ0OrLWR3njjTeCR6zp999/d127dk28XynRYn+1UeGUb3RK75neu/hjas2YpJ/DLrvsoq+PsmjtBADIug6WaZZhFpaFqMMpGmmoj0mnosMX+eaFFBLNZ9Bf7HH6Cz5p+1KiNUlKpfct6aylSy+9NNhi1iUVMBpp0foomrMU/1q+aBRJh5biVLBpNCTpPrMaHeop5VCk3rfoaFKYCy+8MNjiX1qpOBj9GmKZ0wIAWbeQZbLlK8vsugH5PdSpUyf3xRdfBN1CaVQU2GPmZKGFFvKd5Xrrreez2mqruTnmmCNx22233TZncqdGHJK2LSWlXnV70qRJ4RkwNaIVeutjPlFSARPPCiusMPM91f+TtlHU0etSCFEqYDSykbT9rEbFXG2H3OJ+/vlnvzCfToXu06dPYmGmQ4x//PFHcI9/Pfzww+EqvvdZAKAaLGjRVfVVwLTVDUim07WGq7D4559/gm5h1qmDXHjhhXM6oG222cZf6yZKhxB0KESHjeLbL7/88m7MmDHBljPcfvvtvjBYZJFFXOfOnUuKHkOjEpprUQrNH4k/d6Vv377BFqWprYDR89dlDn799ddg6xmLxakQ0PuUdJ8DDjgg2HKGP//80+2www7+Z5b0PhUbfV/97L766qvgO9Tt6quvTnyumi81//zzu+OPP96/riTBXJnplv0tAFANFrD8afnGwshyLXaz+Pkq9UF/JWshOF3nZvXVV/cjAmuuuaafJ5LP+eefn9N56fo4H374YbDFDJqMqsmhmqNSH/nhhx8S/6ovhK69o2X+k1brXWuttfyoQn3IV8BoorHe53x0KrImIsfvpyLj22+/DbaaMd9E1xvSe5H0HhUb/Xx0CLGYxRCTLpeg6NIMF110kZ+nk0QjdHvvvbe2HW3RLzwAVIP2lt8t31ooYGpxuobs802cLZVGdfJ1QCFdPNKeR41oourgwYODLdJFh10OOuignOesaGQnab2YWZWvgNGZPHXRWUjx+6nguu+++4ItKk+Fjkbn4s8zjObT6GwuncauojFKI0/B/JdXLE0tAFANVMCMtXxnmVs3IJeucvmA5r/M6khEMdQB6a//d955xz377LO+c9bojP7StudRI5rIq+vbpM2IESPc1ltvnfN8FR0+0SGx+pRUwKgI0QhLXXTILX7aulJfh7fqgw5hqRjTpO8tt9zSbbrppomnpOt1HH744TVOS1eBG3z9WgsAVIv5LTqzcrhlXt2AXKryvt9www1LPt03n88//9z/9aw1XjTXQnMa7HvWmaQCRqc163BTfebFF18MHr1uuhZP9+7dE5+v5vHkO1W5FEkFjEYlwnVgaqMOXoea4vePLiCngkBXH096b2Y1l112WcFX5NZhoPhnT4egdNmA+PNWNOcoFHlv9rUAQLWYzzLSMsJCAZPHphZ39NFHB11C/VEHq3k1mmiq71FsdN0cjdREadn5pG1LiVZ8LcT999/vz6JKeoytttqqqEmrxUgqYLT2y1tvvRVskZ8KvmCJ/RrRGivhHBUd3qvtzKVZTV3rwNRFKwtr8cP442qysRYOFI3Y2G1/WFaxAEC1UNGi0ZcfLBqNQYKLLbUukz8rbr311rwX5ItH65kkjWrowonxTrBS68Do+yYVAjp995hjjmnQw29JBYzeW63AWxddQFFzieL312q54XySNK4DE7rnnnsSH1+fV40c6fpU1h5gYaVKANVkHsvXFo3CtNMNqKmJ5Rmd7VOf1z/SYZR8q8OqKNGaKVpOXp2QLg2ghcj69++fuG38tOt8p9uWEhUgtdEE46R1STRvR8v0N7SkAkbXXSrk0JeuG5R0CCk66qQCRmdNxbcpJfqe0XVgtFaORnp0aGjYsGF+/tPNN99c43IDSbQCctIcnssvv9xPlA7WELrIAgDVRBel/cLyo0VTPRCjhXI+0+GPYk55rY3mMuive3vcGtHCZpo4qlN1k1x11VU590kqYKIjMOrYSo0eJ98IjNaoOeuss2ZuF40uG1Cuq0EnFTDKDTfcEGyRn+a2JJ3mHV3RVgWMzvLR7fH3Z1aix9FoVbQo1sUudW0m3a4VdjVypeelRehqoyI3+rzDXHvttX613qB9kAUAqokKmE8tP1nUVyNmM8vk+jwjRae16oKQ9rg1opVea7sqc9JicEkFjP5i11k+Gn3Qyq2lRI+hx4qvTBuKdJA1osMt33//fbBVw8tXwGjidW3XZxKtXhu/n9aGiZ4ppeJVc2VUZCS9T8Vm0KBB/qrY0SuM6+eYdAhOk7o1OpNEa/7oNcbvo9Gwe++9NzxFXAs9dbMAQDWZw/KhRWci6bICiDlLfwnfdtttQZdROh0OWnnllXM6HV0sUH/pJ9Hk16SLCWrCbKkTQWeVrsOU1OFqhEGn8j711FPuoYce8mvn1BaN0sTPsNF7pJGH+Lb5lt7PV8Ao5513XrBVLn0PXbU6fh/NN6prXZ76piJJp0fHn4ty2GGH+QXwojRJd//990/cXmd7aYJ4MPH4fUsLCwBUE10+4F3Lz5aFdQP+pUmPz2keh05zri8aEejRo0dOp6NCSQu/6RCSFrZTVNA88MADftn5+PZKoRNV65tGkbSCcNJzKjYajYquWyIqjpK2PfHEE4MtaqqtgNFoikbQNCIUfV9vvPHGxMs5KPVxgclZoVGT8BBTPDq8tNNOO/kRox133DFxHZgwZ599ti9sg1WGNQkdAKqNLuA41DLG0lE34F+LWEao2Kjv9V/UEdtjJ0adqv6CVhZddNHE+RlhWrZs6R577LHgUcunPi8YqYsrxgsYXRG6RYsWOdueccYZwRY1JRUw8UnFGq1aZpllZr6v+QqFTTbZpCwLFibR50yjV0nPq9DotGkdclKBFty2owUAqk0byxsWrcbbSTfgX2taJkcXBasvOkRS7NWNe/fu7Tve+O26Rk45aQSjPk8pbqgCRiNEOnsqX6GSlLXXXrvW61GVgw5d7bXXXonPr65o9eNw7pE+L3bbeMtqFgCoNrNZBlt+sWjAAREnWxpshOODDz5wvXr1yumE4tHIga4mrMJBF3+Mf12HYPLNnWkIb7/9tj9LJv48ZjUqNOIFjObPJG2rQiVJ0oiWCkSNaGjF23yHisJotEYTXus6ZblcNJlbF2jURSWTnm88uraUzgYL30fNl9Ft9rW3LaxQCaAaqYB5yfKrpbNuwAy66N1rWuBMC501FP21rfkW2223nVtyySVnjjqoaNFf0OqYo2cZaWVZrRCrORCaD6F/daXh6JWTG5rWFtlll11mPodSovVuNMIVP/tKxZ1ONVeiC/ipk06iFYD1fMLnpPczOjL1ySefuJNOOsm/p1rTR4+ldVi6devmJ8I++uijwZbposnbWmNH75MOfYVXztbEY03Q1e36+pdffhncY4YBAwb4dXBs2yssAFCNWlpesOiK1IvpBsywuGWkRkh0Ib2GpjNQRo0a5Rcw04RhHQaInmIbpVEFrRAbRp1/fa1RU4j49y8let5J84t07R99XXTdIPtZ+GiNmyTx55TvcfWe6kKTeo91argmI2eBXs/PP//sC5rwuY8ZMybvz/26667T+zXNspsFAKqRzq58zjLO0kU3YIY+lkknnHBC0CWgUjSaYj8Lv9Cf1k5B7VT86crV9p6NtixvAYBq1NzylEXXetOgAwKH6XBOXaugouFoPocOr4XzbXQ2WDnn+mTV8OHDXadOnfSefWzRQk8AUI2aWR6zaLHOJXQDZgxL3a15KPG5BSgPrYLbp08fX7goWotHa8OgbpEJ0HdbAKBaaa7qw5a/LEvpBsx4I8Zptdx881DQsO67776ZxYtOHdeKvijMxRdfHL53O1gAoFrpYsv3W7RcxNK6Af/3f9ta3CGHHBJ0CSg3FY6ax3HEEUf4iasoXHBtJ51WyKQ2ANVOI81/W5bxLfzfqRa/mBoqJ98FDJHfhAkT/OnW9vl9xTKnPswAUMXusEywLOdb+L+HtfCZLpYHZElk/ZdbZnyUAaCqaV830cIZl0arln690UYbMf8FmXPyySeH81+O1YcZAKrcjZZJlhV8q5HThe8m77fffkGXAGSD1n/RKs32+dWl5RlOBdAYXGeZYlnRtxq5iyx5V3wF0kor86600koqYF70n2QAqH5XWaZaVvKtRkyL4jyoi+CFV/QFskLXqGrZsqUKmGv8pxkAqt/lFl02ZWXfasQWtgzbdNNNgy4ByA5dvdo+v8oB+jADQCNwsWW6pZtvNWLrWqYfe+yxQZcAZIMuYLnZZpupeNFQ6qr6MANAI3C+Rfu+Rr/f62dxd955Z9AtANkwduxYt/TSS+uXeIiF9V8ANBbnWLTv6+5bjZSuf/SiLhz48ccfB90CkA1vvvmmm2OOOfRLrF9mAGgszrRo37eabzVSC1i+2njjjf1qpkCWXHDBBfoFVvbShxkAGonTLdr3reFbjdT6lr/79esXdAlANkybNs1ts802+gX+3bKmPswA0EicbNH+r1Hv+85o0qSJu/vuu4NuAciG4cOHuyWXXFK/wB9Y2vpPMwA0DidYGnUB09LydLt27dz7778fdAtANrzyyiuuVatW+gW+wX+aAaDxOMai/d/avtUILWEZvs466wRdApAdt99+u355tQ6CLoMBAI3JkZZGXcCsZ5nSs2dPfwr1rbfe6m655RZCUp3wc7rBBhvol3echYuZAWhsDrVoH9jTtxqhEy2uadOmehMIyWK+tMxnAYDG5GCL9oEaiGiUtILfDoRkOGtZmlgAoDE50KICZkPfAgAAyABd+00FzMa+BQAAkAH7W1TAbOpbAAAAGbCfRQXM5r4FAACQAftYVMBs5VsAAAAZEBYw2/gWAABABuxtUQGzvW8BAABkgK7ArwJmJ98CAADIgD0tKmB29S0AAIAM2N2iAmYP3wIAAMiA3SwqYDQXBgAAIBN2saiA+a9vAQAAZMDOFhUwWpEXAAAgE3T2kQoYXdQRAAAgE3Q1fhUwh/gWAABABmxnUQFzhG8BAABkwLYWFTBH+RYAAEAGbG1RAXOMbwEAAGSArkKtAuZ43wIAAMiALSwqYPr6FgAAQAb0saiAOcW3AAAAMmBziwqY030LAAAgAzazqIA5y7cAAAAyYBOLCphzfAsAACADNraogDnPtwAAADKgt0UFzIW+BQAAkAEbWlTAXOJbAAAAGRAWMJf5FgAAQAasb1EBc6VvAQAAZMC6FhUw1/gWAABABvSyqIC5zrcAAAAyoKdluuUG3wIAAMiAtS0qYG72LQAAgAzoYVEBc5tvAQAAZMCaFhUwd/oWAABABqxhmWa5x7cAAAAyYDWLCpj7fQsAACADulumWh70LQAAgAxY1aIC5hHfAgAAyIBVLFMsj/sWAABABqxsmWx50rcAAAAyoKtlouUZ3wIAAMiAFS0TLM/5FgAAQAYsbxlved63AAAAMmBZy1+Wgb4FpFRzS9MZ/wUA4P+WsfxhedG3gBRSlf2s5XTfAgDg//5vKcs4y8u+BaRQL4uz8CEFAISWsPxmedW3gBRax6IChpnmAIDQ4pZfLK/5FpBCFDAAgLjFLGMsQyzNdAOQNhQwAIC4RS0/W96y6EQPIHUoYAAAcYtYRlnetrTSDUDaUMAAAOI6Wn60vGtprRuAtKGAAQDEdbD8YHnf0kY3AGlDAQMAiFvIMsLykaWtbgDShgIGABC3gGW45RPLnLoBSBsKGABAXDvLt5bPLPPoBiBtKGAAAHHzW762fGGZVzcAaUMBAwCIU9HypeUri4oZIHUoYAAAcTpsNMyiUZj2ugFIGwoYAEDcXJbPLZoHs6BuANKGAgYAEKczjz616FTqhXUDkDYUMACAOK39olOotZidVuUFUocCBgAQp9V3tYidLieg6yIBqUMBAwCI0/WPPrDogo66MjWQOhQwAIA4XYFa10H62dJFNwBpQwEDAIhradGVqH+xLKEbgLShgAEAxDW3vG35zbKUbgDShgIGABDX1PKWZZxlGd0ApA0FDAAgrolliOVPy3K6AUgbChgAQJI3LOMtK/gWkDIUMACAJK9ZJli6+haQMhQwAIAkr1omWlb2LSBlKGAAAEletkyxdPMtIGUoYAAASV6yTLN09y0gZShgAABJBlnUP6zmW0DKUMAAAJK8YFH/sKZvASlDAQMASDLAov6hh28BKUMBAwBIon5B/YP6CSB1KGAAAEmesah/6OVbQMpQwAAAkjxpUf+wrm8BKUMBAwBI8qhF/cN6vgWkDAUMACDJQxb1Dxv4FpAyFDAAgCT3W9Q/bOhbQMpQwAAAktxtUf/Q27eAlKGAAQAkud2i/mFj3wJShgIGAJDkFov6h019C0gZChgAQJIbLeofNvMtIGUoYAAASa6zqH/o41tAylDAAACSXG1R/7ClbwEpQwEDAEhyhUX9w9a+BaQMBQwAIMklFgoYpBYFDAAgyYUW9Q/b+haQMhQwAIAk/7Oof9jet4CUoYABACQ526L+YUffAlKGAgYAkOQMi/qHnXwLSBkKGABAklMt6h928S0gZShgAABJ+lrUP+zqW0DKUMAAAJIcb1H/sJtvASlDAQMASHK0Rf3DHr4FpAwFDAAgyREW9Q97+haQMhQwAIAkh1rUP+ztW0DKUMAAAJIcaFH/8B/fAlKGAgYAkGQ/i/qH//oWkDIUMACAJPtY1D/s61tAylDAAACSaPKu+of9fQtIGQoYAEASrf+i/kFzYYDUoYABACTRNZDUPxzkW0DKUMAAAJJsZ1H/cLBvASlDAQMASLK1Rf2D1oMBUocCBgCQZAuL+ofDfQtIGQoYAECSTS3qH470LSBlKGAAAEl6WyhgkFoUMACAJOtb1D/oqtRA6lDAAACS9LKofzjWt4CUoYABACRZ26L+4TjfAlKGAgYAkGQNi/qHE3wLSBkKGABAklUt6h/6+haQMhQwAIAkK1vUP5zkW0DKUMAAAJKsaFH/cLJvASlDAQMASLKcRf3Dqb4FpAwFDAAgybIW9Q9n+BaQMhQwAIAky1jUP/TzLSBlKGAAAEnCAuZc3wJShgIGAJBkKct0ywW+BaQMBQwAIMmSlqmWi30LSBkKGABAEhUwUyyX+RaQMhQwAIAkS1gmWa7yLSBlKGAAAEkWt0y0XONbQMpQwAAAknSxTLBc71tAylDAAACSqID523KTbwEpQwEDAEiymOUvy62+BaQMBQwAIMmilj8td/gWkDIUMACAJJ0t4yx3+xaQMhQwAIAki1h+t9zvW0DKUMAAAJJ0svxqedDSRDcAaUIBAwBIogLmF8ujlqa6AUgTChgAQJKOljGWJyzNdAOQJhQwAIAkHSw/W56yUMAgdShgAABJFraMsqh/aKEbgDShgAEAJFnI8pPlBQsFDFKHAgYAkEQFzI+WFy0tdQOQJhQwAIAkC1p+sLxiaaUbgDShgAEAJFnAMsLymoUCBqlDAQMASNLeMtwyxDKbbgDShAIGAJCkneVby9uW1roBSBMKGABAkvktX1ves7TRDUCaUMAAAJLMZ/nK8qFldt0ApAkFDAAgybyWYZZPLG11A5AmFDAAgCTzWL6wfG6hgEHqUMAAAJLMbVHx8qVlTt0ApAkFDAAgiQqYTy3fWChgkDoUMACAJHNZPrZoLRj9H0gVChgAQBKNunxk0eUENBoDpAoFDAAgyRyWDyyjLJrQC6QKBQwAIIkKmPctYywUMKgIXQa9+Yz/5iikgNHpc01n/BcA0Eho369VeH+1aE0YoOy0muLVls0tqqijaitgFrOcZdnf0kQ3AAAaDa2++47lD4v6EaDsVHycb1Gh8pJlN4uucSGrWXT7M741w+qWCy2/W362LGMBADQuKmB0IcfxlrDPAMpOw3+qpFWsKDo17hDL7kH7Rcu6lrssvwS3KYdaAACNj65A/ZZlgkVXpgYqJixWotEHU/9OCRL9mirv+CEnAEDjoAJmiGWyhQIGFdXKMsASLVLyZZJlZwsAoHGazfK6ZaplAd0AVNKGFlXTSUVLNI9ZAACNl/7oHWxRAbOwbgAqSadU321JKlrC/GNRoQMAaLxUwLxsmWbpqBuASlvRovP6k4oXRadcAwAaN/3BO8gy3bKIbgDSQKdJJxUvOgOJ06YBAC0sz1vUN2hdMCAVdDzzK0u8gDnJAgCACphnLeobFtcNQFqoWIkWL19YmKgFABBdguYpi/qHpXQDkBY6RU6LFOnDqVnm/7UAACDNLI9b1EcsqxuANNnDog+nFivSokUAAIgKmEct6iOW1w1AmmiW+W2W7XwLAIAZmloesqiA6aobgLTR5QJUaQMAEFIB84BFBczKugEAACDtmljutaiAWVU3AAAAZMFdFhUwq/kWAABABtxuUQGzpm8BAABkwC0WFTA9fAsAACADbrKogOnpWwAAABnQ36ICZl3fAgAAyIDrLCpg1vctAACADLjaogJmQ98CAADIgCssKmA29i0AAIAMuNSiAmYz3wIAAMiAiywqYPr4FgAAQAZcYFEBs5VvAQAAZMC5FhUw2/oWAABABvSzqIDZ3rcAAAAy4EyLCpidfAsAACADTrOogNnFtwAAADLgFIsKmN19CwAAIAP6WlTA7OVbAAAAGXC8RQXMf3wLAAAgA46xqIDZ17cAAAAy4EiLCpj9fQsAACADDreogDnQtwAAADLgEIsKGP0LAACQCRp5UQFzmG8BAABkwH4WFTCaCwMAAJAJ+1hUwBztWwAAABmwt0UFzHG+BQAAkAF7WFTAnOhbAAAAGbCrRQXMSb6ForSwdLX0tPQgJINZ27KABQCyZmeLChhd1BFFmt/ykmWc5TdCMpbfg3AhNABZtKNFBcxpvoWi6C/XD9u1a+cOO+wwQjKV7bbbTr/4CqtYAsii7S3ah53hWyhKe8s73bt3d0DWfPDBB2EBo7UUACBrtrNoH9bPt1AUX8CsvPLKQZcAZMcrr7xCAQMgy7a2aB92tm+hKBQwyCwKGAAZt6VF+7BzfQtFoYBBZlHAAMi4Phbtw873LRSFAgaZRQEDIOM2s2gfdoFvoSgUMMgsChgAGbeJRfuwi3wLRaGAQWZRwADIuN4W7cMu8S0UhQIGmUUBAyDjNrJoH3aZb6EoFDDILAoYABm3vkX7sCt8C0WhgEFmUcAAyLh1LdqHXeVbKAoFDDKLAgZAxvWyaB92jW+hKBQwyCwKGAAZt45luuVa30JRKGCQWRQwADKuh2Wq5XrfQlEoYJBZFDAAMm4Ny2TLjb6FolDAILMoYABk3OqWiZabfQtFoYBBZlHAAMi47pYJllt8C0WhgEFmUcAAyLhulr8tt/sWikIBg8yigAGQcStb/rLc6VsoCgUMMosCBkDGdbX8YbnLt1AUChhkFgUMgIxbwfK75R7fQlEoYJBZFDAAMm45y2+W+3wLRaGAQWZRwADIuGUsv1ge8C0UhQIGmUUBAyDjlrKMsTzkWygKBQwyiwIGQMYtYRltedS3UBQKGGQWBQyAjOtiGWV5zLdQFAoYZBYFDICMW9Tyk+UJ30JRKGCQWRQwADJuEcsPlqd8C0WhgEFmUcAAyLiOlu8tz/gWikIBg8yigAGQcQtbhlue8y0UhQIGmUUBAyDjFrR8a3net1AUChhkFgUMgIxTH/yNZaBvoSgUMMgsChgAGTe/5SvLIN9CUShgkFkUMAAybl7LMMvLvoWiUMAgsyhgAGTc3JbPLa/6FopSUAHzxx9/uMsvv9yddtpp7swzz3RnnHGG69evn/v444+DLZwbPXq0u+aaa9yhhx7q9tprL7f77ru7/fff35166qnurbfeCraq3UcffeTOOuss//j6Pqeccoq77bbb3LRp0/zXBw8e7I4++mj/2Hvuuac74ogj3IMPPuj++ecf//V8/vrrL/fII4+4E044wR144IH+vnqM//73v+7www93F1xwgfvss8+CrWfNn3/+6R5++OGc77H33nv790Sv6bXXXpv5Woqhx77rrrv8a99333394+6xxx7++/Tt29c9++yzbtKkScHWhdPP9YEHHvDP+ZBDDvHPVY+t6Pscdthh7vTTT3eDBg1yU6ZMCe5VmOnTp7v333/fnX/++f7ntN9++818bH0+9NyPPfZY179/fzdy5MjgXsWhgAGQcXNaPrW85lsoSkEFzPfff+8WWGCBsLOYGXXY6pAvu+wyt9RSS+V8Pcwcc8zhO/RPP/00eMRkd955Z859e/bs6TtndXTzzjtvztebNWvmi6skP/74oy+IlltuOdeiRYuc+0ajx9555519Z10MFRd6/V27dnXNmzdPfOwws88+u+vdu7d76qmngnvX7u+///aPveKKK7qmTZsmPqbSqlUrt+aaa7pbb721oEJDz/l///uff1/0/iU9ZjStW7d266yzjrvnnnsKKsBUqG2zzTZuzjnnTHy8eDp06OCLHH3OikEBAyDj5rB8bHndt1CUggqYH374wXXq1KlGp6PO+pZbbvGjAtHba8tiiy3mBgwYEDxqrrvvvjvnPptttpm76aabXMuWLXO+pjRp0sQ9+uijwSP865lnnnErrLBC4n1qS5s2bfzIz8SJE4NHyu/LL790G2+8ceLj1BYVMuecc07wKMk0KrH11lsn3r+27LPPPu73338PHiXXL7/84rbffvvE+9YVFTsaGauNRnSSCs1CstJKK/n3tFAUMAAyro3lI8ubvoWiFFzAdO7cuUZno4JiiSWWqHGb/lKff/753VxzzVXj9mgWXHBBfygoif7CV0ES3X6++eZz88wzT43botFz/+2334JHmOGJJ57w90vaXtHj6XnONttsiV9XDj74YD8Cks+3337r1lhjjcT7KnPPPbf/HiqIkr6u3HDDDcGj1fTrr7/WWhipQNDri79XYXbYYQc3fvz44NH+pcM6Rx11VOJ9FL0velxFozpJ2+h7aqQnyZtvvpn3fVfRpq/V9fnQSI+KrEJQwADIuNaWDy1v+RaKMssFTDQ6VHDccce5559/3g0dOtQXKDqsoxGXpO033HBDPy8lLqmAqSuavxKleTQdO3ZM3Hbdddf1h6neeOMN/zyfe+45d/zxx+ctkE466aTgUWuaMGGC22WXXRLvo/dShYkOo7z99ttu4MCB7sQTT0wsZBZaaKGcw2pTp07181Hi2yoqmO644w43ZMgQP69Ih/A22WSTxG2vuOKK4BH/9cknn+QUGDo0pUNnmkuk90WPq2gES4d1kp734osv7kaMGBE86r80Zya+7ZJLLukPg+nQnB43/HzcfPPNrlu3bjnbKxdddJEvtupCAQMg41pZ3rO841soSskFjEYDkg7hyAcffOAPC8TvoyJFh5/iaitgdPhCIwsvvfSS7/QvueQSP+9D3yOk+R+77rprzn31mJo0qrkfSXRYS/Mw4vfTCI2KsrjHHnssce6ICqR88ziuu+66xPvoealoCWniq+YMxbfr1auXn9MTp1EiTb6Nb7/ooou6r776KthqBhU/8e2WWWaZWkeaLr74Yr+dnpMOI2quk+bkPPnkk8EWM+gx9POIP35SIRXSKJbm4ejnozlWXbp0ccsuu6yf/F3bcwpRwADIOBUw71pUxKBIJRUw6nhUSNRGZ/8kddzbbrutmzx5crDVDLUVMBrFiP9VrvtHJ5W++uqriSMGmgicr3gJaUQgaaKvRiei30P/P+CAA3K2Uwf/4osvBlvl0plSKkLUUa+yyip+5ERn+lx99dU1ziDS/Jv4Y+uQi0Zz8vnuu+/c0ksvnXO/a6+9NthiBr3G+DYafdIIiX7GScaNG+fPBFPhqIJD82tUcMV/Fnp/V1tttZzH1+t8/fXXc37WIf3M7r//fvfhhx+6n376yb9PhUwUFgoYABnX0vK25QNLU92AwpVUwGjUIv5XfpxO1U3q2PSX/6hRo4KtZshXwOgv86TRh7izzz475746RHLvvfcGW+SnQ1prr712zv11GOybb74JtppxurjOOIpvpyKprom/Ouyi92vMmDGJp36rONDoRvyxN9hgg2CL/HS4J34/nSYepQ4/35lSep06Q0qH/lSIqaD4+eefg3vWTUVHvsnBmg+kkTgdGtNhLx1K0vtQaKGSDwUMgIxrYdH8F03k1f9RhJIKGHV4SXNZ4pLOVNKhp/j8j3wFTHwUJImKhy233DLnvjqUUkjxI5rzEr+/RmV0yCikORxJozz/+c9/gi1m3eeff544wVWHZjSS9fjjjydGh3N23HHHnPutv/76NUY+dFhGP7P4dknRz2H55Zf368zocJ8ObdVFhWK+EbR4NGKln+uVV17pJ11rpKdYFDAAMk5FyxDLJxYdTkIRSipgdtpppxrzN/K58MILc+6rDuydd94JtpghXwFzzDHHBFvkp1ENvY74fbt37+5HgQqhzjR+f0WHeUJPP/104jZalK1UGplImv+i90SH4fJFoypJ68RoAm18lEsFWNIoT13RoS8VSbWtYaNDYVoUL+n+tUXPXyM0OrW8mEXtKGAAZFxzi9aA+cyiU6pRhJIKGJ2JU8hhAJ1VEr9v27ZtCy5gtIptXXRoRxNC4/ft0aNHnfNfQlosL35/5dJLLw22mDGBN2kbnYVVKh26qe2062KjUS6N6sTpbCRNlC10obloVGyooMw3yVafB01YTjpsWEhUXOl07EJQwADIOBUwWoX3C0tb3YDClVTAbLXVVgUt+Hbeeefl3FfzIqJnEEm+Auaqq64KtshPhyBUrMTvqwmzhR6eUKESv79y4403Bls4f+p10jYHHXRQsMWsU8edNAKj9XW0fo5GQYqJioFhw4YFj55LE4M10Vdnd2n7fIsFJiV++nqc1nLRonaafK2fQdLryhcdutLE5LpQwADIuGYWXQfpS8tcugGFK6mA0Uq3hcwv0V/78ftqAnB0cqzkK2B09kxd9Je/rg8Uv6865kJXd01ax0Qdr87ACWkuiIqv+Haaf1PXaJQm8WqtlbFjxyauc/LFF18kzoFRgaG5RvmiRetUSOoQjv7VBGGNkOj2QkbIRCNYWvtFo2U6y0rzZ2pbQFBFRqELzmndHE0K1s9RBY0m+2oSd9Ljhrn++uuDe+dHAQMg41TA6ErUX1t0ZWoUoaQCRqu1Rjv3JJqbknSdJC3KFh8ZyVfA6FIChdDpwPH7KnWd6i2aK6JOOX5fLbamlXFDOlNorbXWytlOi7vpNODaaJKwDtvo/dZifhrB0oUNw4ti6v3QaEX8sbU6bV0Xa9QaOJqwm28BOBUyKiRU1Oj7qKi7/fbb/QJ2SfT9dIhP7318xWUlXhjqe6to0uE6FUMvv/yyn1OUb10cFXMvvPCCP1Mqaf6OVgyuCwUMgIzTqdMvWb61zK8bULiSChhFF+1Tx5iPlp1PKkq0gFtcqQVMvkMw6oDjoz1xump2/H5K0twWjSIkbasrL+ejicSrrrpqzn20anB0VVtNZI1vo3kxOgspHx2K02NrREynXGt9GRVtGu0J6ZRozVnSPCGtABy+TzpFva6JszoTKf6cdEgrWsDoTCV9jnQ6tkZuwksR6KKRtdHPpV27djmPrzPX6kIBAyDjVMAMsgy3qD9GEUouYBRdN0gjLXE6PTZpWX91nvoLPa7UAkajALqYYfz+ikZN4pOGRaMGKjw0qTh+HxU+X3/9dbDlv1QYJB3qUceteR/xURAd5tGIgs4Yit+nX79+wVYzaIKtJt/Gt9MhNx3iidPhqHwXfdTZXyGNqGy33XaJ22kUSKMmSbReS9LcIq2YG/2Za25Q0s9OxZK+lkSjRlp3Jum6S/FF+JJQwADIuCaWFyzfWxbSDShcvRQwig6/aNl5Lb2vSwvoFOt8k0I1JyZJqQWMqOBIOmSlaO6KRie0boqep06P1mnWSdtq4qxWiM0n34iNXrMKChUy+h4amUhaIE/R80w6xJK0Gq+iSxtoPsxDDz3kH1tnTSVdqkHRSEx8jsq7776bONqh6LmcddZZvtjQY2t9mSOPPNItvPDCidsnXSdKo2pJ2+q91LwXrROjxw6fuy69kLT6sdbuKWTeEgUMgIxTATPAMtLSQTegcCUVMLowYNLIRW3R5NB8c0Xqo4ARXUixrkmitUWjK3V9T831SLoGUaFRIaFrMCXRiM1uu+2WeL9Covk4+Rae02UBkiYhF5M+ffr4kZ84jeJstNFGifcpNJojlG9eThwFDIAq8KzlJ8sivoWClVTAbLHFFr6zKbRY0PWP9Fj53H333Yn3i57GXCidPqxRoKTDE7VF65dohKAQOttHh4aKXbtF81BqWxBONGdGIyAavUh6jHzRhF+NtNRGy/nrEFDS/WuLikud6ZV0uDCkr2lV4qTDZXVlkUUW8SNXhaKAAVAFnraMtizmWyhYyQWMqFjYb7/9/IhMfBtFZxxpLZd8i5+F6rOACelwkQ4babJq0mMrOjSjQy46hVhnGRVLIynqtJOuaB1GHbreh9NOO63GpN26aOXf3Xff3Z/1k/S4ih5bF4os5vlr4q4WCNT96lr/pX379n7Zf42QFbLysqhI0ghVbe+JojOQVl99dXf88ccnLrpXGwoYAFXgKcsYyxK+hYKVVMBsvvnmNYoSFTIqQnTWitZU0QTNwYMHu99++y3YonY6vVeTWOMp9P61UYetKx9rfREtd6/npwm09913nz+NWYdtShWeGqzTuXVpAX2P008/3d11111+VKSU16GF3QYOHOhPTQ6fvwoQvd/vvfdewZdLiNOhML3HOstJk341oqTH1jwcTaQdNGiQ/96FricTp/dE7/sNN9zgTj75ZP/Y+h5aCE+jLTrUNavvCwUMgCrwhOUXy1K+hYLVawEDlBMFDIAq8JjlN8uyvoWCUcAgsyhgAFSBRyzjLCv4FgpGAYPMooABUAUetvxpWcm3UDAKGGQWBQyAKvCgZbxlFd9CwShgkFkUMACqwP2WfyzdfQsFK6iA0ZkkWmDMtq2Rnj17+osDApVAAQOgCtxrmWhZw7dQsIIKGF2N+fDDD3e77rprjehU2IkTJwZbAeVFAQOgCtxjmWJZy7dQsIIKGCCNKGAAVIG7LNMs6/gWCkYBg8yigAFQBe6wTLf08i0UjAIGmUUBA6AK3GbRfmx930LBKGCQWRQwAKrArRbtxzb0LRSMAgaZRQEDoArcbNF+bGPfQsEoYJBZFDAAqsCNFu3HNvUtFIwCBplFAQOgCvS3aD+2hW+hYBQwyCwKGABV4HqL9mNb+RYKRgGDzKKAAVAFrrVoP7atb6FgFDDILAoYAFXgaov2Y9v7FgpGAYPMooABUAWutGg/tpNvoWAUMMgsChgAVeByi/Zju/oWCkYBg8yigAFQBS6zaD+2u2+hYBQwyCwKGABV4BKL9mN7+RYKRgGDzKKAAVAFLrJoP7aPb6FgFDDILAoYAFXgAov2Y/v6FgpGAYPMooABUAXOt2g/doBvoWAUMMgsChgAVeBci/ZjB/kWCkYBg8yigAFQBc6yaD92sG+hYBQwyCwKGABV4AyL9mOH+RYKRgGDzKKAAVAFTrVoP3aEb6FgFDDILAoYAFXgJIv2Y0f7FgpGAYPMooABUAWOt2g/doxvoWAUMMgsChgAVeBYi/Zjx/kWCkYBg8yigAFQBY60aD92om+hYBQwyCwKGABVQGcfaT/W17dQMAoYZBYFDIAqoPVftB87xbdQMAoYZBYFDIAqoEsIaD92mm+hYBQwyCwKGABVQBdx1H5MC9qhCBQwyCwKGABVYB+L9mO6pACKQAGDzKKAAVAF9rRoP3a2b6FgFDDILAoYAFVgN4v2Y7oqNYpAAYPMooABUAV2tmg/dp5voWAUMMgsChgAVWAHi/ZjF/gWCkYBg8yigAFQBba1aD92sW+hYBQwKTRu3Dh32223uSuuuMJdddVVPvq/Omz8iwIGQBXYyqL92KW+hYJRwKTQV1995RZccMGwc56Zgw46KNgCQgEDoAr0sWg/drlvoWAUMCn09ddfu86dO88sXMIcdthhwRYQChgAVWBTi/ZjV/oWCkYBk0IqYBZddNGZhUuYww8/PNgCQgEDoAr0tmg/drVvoWAUMPVo2rRp7ocffvCHgMJ88803bsKECcEWhaGAKQwFDIAqsIFF+7FrfQsFo4CpR7///rvr0aOHa9q06czMMccc7o033gi2KAwFTGEoYABUgXUt2o9d71soGAVMPVIBs9pqq80sOJRWrVq51157LdiiMBQwhaGAAVAF1rFoP3aDb6FgjaaAGTFihBs8eLB7/PHH3Z133uluueUWd+utt7r777/fDRgwwL377ru+ACmF7r/mmmvOLDiU2Wef3b3++uvBFoUptIAZNmyYe+qpp/wp14pem17HpEmTgi2qGwUMgCqwpkX7sZt8CwWr+gJm4MCBbqeddnJLLbWUa9u27cxiIJrmzZu7du3auVVXXdWdeeaZbuTIkcG9i9PQBczRRx/tv/7222+73XbbLfFMpfbt27tevXq5u+66y02ZMsVvX60oYABUgdUs2o/d4lsoWNUWMBqF6Nu3r2vRosXMzr3QLLvssm7IkCHBIxWuHCMwGjmad955c76WFBVus1qMZQEFDIAq0M2i/djtvoWCVW0Bc9ZZZ83syGclK620kvvuu++CRyvcOuusU+NxNOrz0UcfBV8tTL4CRovbaU5N/PbastFGG7nRo0cHj1xdKGAAVIGVLdqP3elbKFhVFjAa8dDZP/baaqRDhw5un3328YdijjnmGHfEEUe43Xff3c0zzzw52yrXXHNN8Ij/0hyTp59+OjEPPPCAW2aZZWo8xmyzzeYuvvjixO2VZ555xo0ZMyZ49BnyFTDRbLLJJn5ERq/j4IMPdj179kzcTjnkkEP8Kd7VhgIGQBVY0aL92N2+hYJVXQEzdepUd+ihh87svMOoeNEk3iR33HGHa9OmTc59TjrppGCLf6lwiG9XajT5Nqq2AkYjOpdccklOQTJ+/Hh3wgknuGbNmuXcZ84553RvvvlmsGX1oIABUAWWs0y33ONbKFjVFTDTp0/3Zxy9+uqr7qabbnKnn366H2W55557gi1y6T5rrbVWjU5f2X///YMt/rXNNtvkbFdKtFaMRmKiaitgNMm4Nvvuu2/i/Y4//vhgi+pBAQOgCixtmWa539JEN6AwVTsHphgamVlsscVqdPiKJsFqRCdq2223zdmulGjEpNACRs/x22+/DbZKNnTo0MRDYjrE9NdffwVbVQcKGABVYAnLVMuDlqa6AYVpVAXM2LFj3WeffeZefPFFd/755/tipHv37m7uueeu0dmH2XHHHXMKmA033DBx21Ly6KOPBo8+Q74CZs899wy2yO+3335zyy+/fM59F198cX9pg2pCAQOgCixqmWJ52EIBU4SqL2A+/fRTd9555/l1U1Ss5Juwm5Sdd945p4DRRN1+/fol5uSTT3adOnWq8RgtW7b0h6KStlfOOeecnMIiXwFzyimnBFvkp9PHe/funXNfvW6tH1NNKGAAVIFOlsmWxyzNdAMKU7UFjE6B1oiFTj221zhLSZoDU5f42UCadKsiqhj5Cpgzzjgj2CI/zefZY489cu47K+vRpB0FDIAqsLBlkuVxCwVMEaqygPnkk0/ccsstV6MDj0cL3GlOyXrrredPrV5kkUVyttHpx8Vo6IXsChmB0dlJGjmK31dnIml+TDWhgAFQBRawqIB50tJcN6AwVVfA6HTiLbbYokbnHUYFy1577eUPA2k9F43S/Pnnn/5+G2+8cc72Wl+lGA1dwGhkpS56/fELSip67bp2UjWhgAFQBea3TLA8Y2mhG1CYqitg3njjDV802Ouqkc0228z98MMPwVY1TZgwIWcFXSVtBYwWyfvxxx+DrZLpNSZdI2nttdd248aNC7aqDhQwAKrAPBYVMM9ZKGCKUHUFjK7KbK+pRpo0aZJzpk+UCgYtdBe/X9oKGL2O66+/Ptgqma6wrYtTxu972GGHBVtUDwoYAFVgTsvfluctLXUDClN1BYwudmivKScnnnhisEVNGn3Jt/hbsXNgdApz165dcx5Hi+oVI18Bo+h2ddxJdM2lJZdcMuc+rVu3doMGDQq2qh4UMACqwByWvywvWFrpBhSm6goYrfGi6w/Z66oR3Xbcccf5M4J++eUXv1qvRiuS5r6E0ZyTYq4h9M8//7jrrrvOXwVbp1TrUgRaOVffqxi1FTCKzqzS6dfR13L11Ve7JZZYInH77bff3k2ePDl49OpBAQOgCrS1jLMMslDAFKHqChjN80iazxJG1zyaa665Ei/2GE+vXr38pNhySypg9LwXWmihGrfp8FRdr0UL2BV7GndWUMAAqAIqYH61vGSZTTegMFVXwMhLL73kFl544RodeW1RoaILQOq6RNHb55tvPn9KdrklFTALLLCAP3tq8803r3F7bdGp5JrUXK0oYABUgdktYy2vWFrrBhSmKgsY0aGk+ITaeHQo5qijjvKXGBg9enTOCIdyzDHHBI9YPjrdWSMr8efy4Ycf+tO+NZ8n6bmG0WiNVh6u1pGXEAUMgCqgAuZny2ALBUwRqraAkTFjxvhRi2OPPdb16NHDj2Jonojmtuhsnvfffz/YcoZnn33W3x7Nk08+GXy1fP744w93991313gemq+j1xP64IMPXP/+/f2idV26dHEdO3b0p4pfcMEFvnjTirzVjgIGQBVoY/nJ8nrwfxSoqguYKI1c/PTTT360pZo6d12rSYWNRpB0RlVjQgEDoAqoaBlpGRL8HwVqNAUMqg8FDIAqoMNGIyxvWXQ4CQWigEFmUcAAqAIqYL61vG3RGUkoEAUMMosCBkAV0KnTX1nesVDAFIECBplFAQOgCqiA+cLynkWr8qJAFDDILAoYAFVABcxnlg8sFDBFoIBBZlHAAKgCunzAx5YPLbqwIwpEAYPMooABUAVUwGj0RUUMBUwRKGCQWRQwAKpAS4vmv3xqmUs3oDAUMMgsChgAVUAFjE6h/txCAVMEChhkFgUMgCrQwqJF7IZZ5tYNKAwFDDKLAgZAFVAB84blS8s8ugGFoYBBZlHAAKgCzS26EvXXFgqYIlDAILMoYABUARUwL1t0OYF5dQMKQwGDzKKAAVAFmlletAy3zKcbUBgKGGQWBQyAKqAC5nnL9xYKmCJQwCCzKGAAVIGmlucsIy3z6wYUhgIGmUUBA6AKqIB5xvKjhQKmCBQwyCwKGABVoInlScsoSzvdgMJQwCCzKGAAVAEVMI9ZfrZQwBSBAgaZRQEDoAqogHnYMsaiPhkFooBBZlHAAKgSD1p+sVDAFIECBplFAQOgStxn+c2ygG+hIBQwyCwKGABV4m7LOMuCvoWCUMAgsyhgAFSJOy1/WihgikABg8yigAFQJW6zjLcs5FsoCAUMMosCBkCVuNnyt4UCpgi+gFlllVWCLgHIjsGDB1PAAKgGN1omWBb2LRSEAgaZ9dprr1HAAKgG11smWTr4FgqiU7a+mHvuud1OO+3kdtxxR7fDDjsQkvrsuuuubt111w0LmEP0YQaAjLrGMsVCAVOEeSw3WQYTkuFsYQGArLrSMs3S0bcAAAAy4HKLRpM7+RYAAEAGXGKhgAEAAJlyoYUCBgAAZMp5FhUwi/gWAABABvzPogJmMd8CAADIgLMtKmCW8i0AAIAM6GdRAbOcbwEAAGTAWRYVMCv6FgAAQAacblEBs4pvAQAAZMBpFhUwq/sWAABABpxqUQGzlm8BAABkwEkWFTC9fAsAACAD+lpUwKzvWwAAABlwgkUFTG/fAgAAyIDjLCpgNvMtAACADDjGogJmS98CAADIgKMsKmC29S0AAIAMCAuYHX0LAAAgAw63qIDZ1bcAAAAy4FCLCpg9fQsAACADDrGogNnHtwAAADLgIIsKmP19CwAAIAMOtKiAUSEDAACQCRp5UQFzmG8BAABkwL4WFTA6nRoAACATNHlXBczxvgUAAJABe1tUwOiq1AAAAJmwl0UFzKm+BQAAkAF7WFTAnOlbAAAAGbCbRQXMOb4FAACQAboGkgqY830LAAAgA3a2qIC52LcAAAAyYEeLCpjLfQsAACADdrCogLnatwAAADJgO4sKmOt9CwAAIAO2saiAucm3AAAAMmBriwqYW30LAAAgA7a0qIC507cAAAAyoI9FBcx9vgUAAJABm1lUwDzkWwAAABmwiUUFzGO+BQAAkAEbW1TAPOlbAAAAGbCRRQXMs74FAACQARtYVMAM9C0AAIAMCAuYl3wLSIE2lq6Wzr4FAECudS0qYF7xLSAFVrf8bLnXtwAAyNXTogLmVd8CUqCXRR/KF30LAIBca1soYJAq61j0oXzOtwAAyLWWRX3Fa74FpAAFDACgLmtY1Fe87ltAClDAAADq0t2ivmKIbwEpQAEDAKhLN8t0y5u+BaQABQwAoC4rW6ZYhvoWkAIUMACAumi9sImWt30LSAEKGABAXVaw/G1519JUNwCVRgEDAKjLcpa/LO9ZmukGoNIoYAAAdVnG8oflA0sL3QBUGgUMAKAuS1l+s3xoaakbgEqjgAEA1GVxy1jLR5ZWugGoNAoYAEBdulhGWz62zKYbgEqjgAEA1GVRy0+WTyxtdANQaRQwAIC6dLL8YPnMMrtuACqNAgYAUJcOluGWLyxtdQNQaRQwAIC6LGT5xjLMMqduACqNAgYAUJcFLF8GoYBBKlDAAADqMr/lc8vXlrl1A1BpFDAAgLrMZ9EZSDqMNI9uACqNAgYAUBcVLVqF9zuLihmg4ihgAAB10byX9y06E4kCBqlAAQMAqItOnX7X8r2lnW4AKo0CBgBQFy1eN9Sixeza6wag0ihgAAB10fWPhlh+tCyoG4BKo4ABANSlpeU1i66HpEXtgIqjgAEA1KWZ5RXLKIsuKwBUHAUMAKAuTS0vWUZbOuoGoNIoYAAAhRhoGWNZxLeACqOAAQAUYoBlrIUCBqlAAQMAKMQzll8snX0LqDAKGABAIZ60/GZZzLeACqOAAQAU4nHL75YuvgVUGAUMAKAQj1j+sCzhW0CFUcAAAArxoOVPy5K+BVQYBQwAoBD3WcZblvItoMIoYAAAhbjb8rdlad8CKowCBgBQiDstEyzL+hZQYRQwAIBC3G6ZaFnet4AKo4ABABTiFosKmBV9C6gwChgAQCFutqiA6epbQIVRwAAACnGDZZJlZd8CKowCBgBQiOstKmC6+RZQYRQwAIBCXGeZbOnuW0CFUcAAAApxtUUFzOq+BVQYBQwAoBBXWqZY1vAtoMIoYAAAhbjMMtXSw7eACqOAAQAU4lKLCpi1fQuoMAoYAEAhLrZMs/T0LaDCKGAAAIW4wKICZl3fAiqMAgYAUIjzLNMt6/sWUGEUMACAQpxrUQGzoW8BFUYBAwAoxNkW9Re9fQuoMAoYAEAhzrSov9jYt4AKo4ABABTidIv6i818C6gwChgAQCFOtai/2Ny3gAqjgAEAFOJki/qLLX0LqDAKGABAIfpa1F9s5VtAhVHAAAAKcbxF/cU2vgVUGAUMAKAQx1rUX2znW0CFUcAAAApxtEX9xfa+BVQYBQwAoBBHWtRf7OhbQIVRwAAACnG4Rf3Fzr4FVBgFDACgEIdY1F/s5ltAhVHAAAAKcZBF/cXuvgVUGAUMAKAQB1jUX+zpW0CFUcAAAAqxn0X9xd6+BVQYBQwAoBD/tai/2Me3gAqjgAEAFEIjL+ovVMgAFUcBAwAohOa+qL/Y37eACqOAAQAUYg+L+gtN5gUqjgIGAFCIXS3qLw72LaDCKGAAAIXQCrzqL7SgHVBxFDAAgELoGkjqL3RJAaDiKGAAAIXYzqL+4gjfAiqMAgYAUIhtLeovdFVqoOIoYAAAhdjKov7iGN8CKowCBgBQiC0s6i+O8y2gwihgAACF2Nyi/uJ43wIqjAIGAFCITS3qL07yLaDCKGAAAIXYxKL+4lTfAiqMAgYAUIiNLeovzvAtoMIoYAAAhdjQov6in28BFUYBAwAoxAYW9Rfn+hZQYRQwAIBCrGdRf3GBbwEVRgEDAChEL4v6i4t9C6gwChgAQCHC/uIy3wIqjAIGAFCItS3qL670LaDCKGAAAIXoYVF/cY1vARVGAQMAKMSaFvUX1/sWUGEUMACAQqxuUX9xk28BFUYBAwAoRHeL+otbfQuoMAoYAEAhulnUX9zhW0CFUcAAAAqximW65W7fAiqMAgYAUIiVLCpg7vMtoMIoYAAAhVjRMtXykKWJbgAqiQIGAFCIFSwqYB6xNNUNQCVRwAAACrGcZYrlCUtz3QBUEgUMAKAQy1gmW562tNANQCVRwAAACrGUZZJF/UUr3QBUEgUMAKAQS1gmWl6wUMCg4ihgAACFWNwywfKSpbVuACqJAgYAUIguln8sr1ja6AagkihgAACFWNQy3vKaZXbdAFQSBQwAoBCLWFTAvGmZQzcAlUQBAwAoRCfLX5a3LXPqBqCSKGAAAIVY2PKn5T3LXLoBqCQKGABAIRay/GH5yDK3bgAqiQIGAFCIBSzjLJ9a5tUNQEPTZKs1Z/w3R10FTEdLtxn/BQA0Yu0sv1u+sMynG4CG1taiq4c+aeljiV7DIl8B09lysuVDy266AQDQqM1v+c3yZfB/oCy2tKhQ0YW4tAz0PhYtRKTLo+t2XV1UulvOs/xg0e2suAgAEB02+tXyrUWjMUDZ9LeoKAkzyHJL8P/PLVdbNEEr/Lr+r4IGAABN3P3FMsKi+TBA2axs0QSssECpK7dZAAAQnTqtAmakZUHdAJRTP0tSsRKPDiEtZgEAQHRCyBjLKIvWhAHKSkXJd5akoiWasywAAIR0/SMVMEoH3QCU22GW6ZakwkXRmUcMDwIAonRCx2iLzkTSEhtA2ekaFloKOql4Uf5jAQAgqpVFh490goeuiwRUxPaWSZZ48fKqRevGAAAQ1dKiAkZXpNaVqYGKaG4ZYIkWL1Mtm1gAAIhTAaMzkP6xLKobgErZwKIri4YFzAOW2SwAAMSpgBluUQHDWaqouBssKl60uqLWiQEAIIkuQ/OVZYKli24AKqmrRQsTXe9bAAAk09QDrdquAmZx3QBU2o4WPowAgNqogPnEMtGypG4AAABIu2aW9y0qYJbWDQAAAGmnAuZti5bgWEY3AAAApF1TyxDLZMtyugEAACDtVMAMtkyxrKAbAAAA0q6J5WWLCpgVdQMAAEDaqYAZaNGq7VqCAwAAIBOetaiAYeFTAACQGU9aplm6+RYAAEAGPGqZblnVtwAAADLgQYsKmO6+BQAAkAH3WnQB4NV9CwAAIAPusqiAWcO3AAAAMuA2iwqYtXwLAAAgA260qIDp4VsAAAAZcL1FBcw6vgUAAJABV1tUwPT0LQAAgAy4zKICZl3fAgAAyICLLCpg1vMtAACADDjPogJmA98CAADIgLMtKmA29C0AAIAMONOiAmYj3wIAAMiAUy0qYDb2LQAAgAw40aICZlPfAgAAyIDjLCpgNvMtAACADDjSogJmc98CAADIgMMsKmC29C0AAIAMONCiAmYr3wIAAMiAfS0qYLb2LQAAgAzY26ICZlvfAgAAyIA9LCpgtvMtlMUKlpMsp1hOJiRj0eJRR1vmswBApexiUQGzvW+hLM6xuFatWrm2bdsSkpnMMcccrkmTJtphDLO00YcZACpkB4v2Rzv6FhpcM8sD7du3d2+//bYbPXo0IZnJCy+84Atv+wz3959mAKgcTd7V/mhn30KDW9Dyde/evR2QNZdccol2Fsp++jADQAVtYdH+SIeSUAabWNzJJ58cdAlANkyZMsWtt9562llMtKysDzMAVJCugaR90q6+hQZ3g8U9/PDDQbcAZMP333/vOnfurJ3FE5ZW+jADQAVtZNE+SWcjoYFp0uM7iy66qBsxYkTQLQDZ8Mgjj7gWLVpoZ3G8/zQDQGVtaNE+aS/fQoNa0fLzwQcfHHQJQHYcfvjh2lFMsnDdEQBpsIFF+6V9fAsN6hDL9P79+wddApANY8eOdd26ddOOYoRlYX2YAaDC1rdov7S/b6HBNLc8oHU0Xn/99aBbALLhrbfecm3atNGO4iH/aQaAylvPov2SLuqIBrSYZfgKK6zg/vnnn6BbALLh9ttv105C2U0fZgBIgXUt2i/p6AYakN7oKccff3zQJQDZsfXWW2snMc6iy2AAQBr0smjfdLhvocGc3KxZM7+SKZAlP/zwg2vXrp12Em9Z5vafZgCovJ4W7ZuO8i00iBaWoQsvvLD7+uuvg24ByIYHHnjANW/eXDuJC/ynGQDSYR2L9k3H+RYaRDfLH1tuuaWbNGlS0C00XtOnT3eff/65Gz9+fHBL4/TTTz+5zz77LGil12mnnaYdhFbf3VwfZgBIibUt2j+d6FtoEAdY3KWXXhp0CY3Xu+++63bffXe37rrrut9++y24tXH5888/3Y033uiWX35597///S+4NZ0mTpzoNttsM+0gvrDoOl4AkBY9LNo/neRbaBCXzzPPPG7o0KFBt9D4DBs2zGkBv/nnn18fNrfyyiu7P/74I/hq4zB16lR3//33ux49evj3QEl7ATNkyJDw9OlnLU0tAJAWa1m0fzrVt1DvFrB8vOqqq7q//vor6BYaj2nTprkrr7zSLbDAAjM7bWW11VZrVAXMd99950cyNJE7+j6cf/75wRbpdMUVV4TPlSFaAGmzpkX7pzN8C/XOX+5bh00aowkTJrgNNthgZocdprEVMI8//njOe6CkvYDZa6+99Dz/tixrAYA0WcOifVQ/30K9O8viDx00RppDsfnmm9fotBUVMJoL0lg888wzrlWrVjnvwwUXXBBskT762Wmejj3PwZbWFgBIk9Ut2ked41uod08ttNBC/oyTxkpnX9n7UCNrrLFGozojS+v/JBUwl1xySbBF+ug5t2zZUs/zcgsApM1qlmmW830L9aqd5YftttvOTZ48OegWZs2PP/7oHnvsMdevXz+3ww47OM2pWWaZZdzqq6/uh/kvvPBCN2DAgIJHNVQ8PPzww36Ow1VXXeWj/z/44IO1FhZ6HY888kiN+11++eV+rZApU6YEWzn30UcfuauvvtqfebXccsvldNydO3d2F110kbv22mtnfl/9xR8aOXKk00UvNX9G30P/3nTTTe7XX38NtnDutdde869722239d9jpZVWcjvttJO77LLL/LV7CqF1ea655pqZ3yeMnn9tdBp49D1Q1I7eL3yP9fgHHXRQuJZKjWy11Vbu+uuv9/fXc3jvvfeCe1eennPwPPezAEDadLeogLnIt1CvDrZM1zoas2rUqFH+TJWkIiApOj35jjvu8JNna6NCZ6211sq5v644XNvclL///rvGWTRhVllllRrXeFJnHt+mtqggixYnL730Us6IxVxzzeW+/fZbPyF23333dS1atKjx9Wg0cnDooYe64cOHB4+YTIf2ku6vgqI2N998c+L9VISE9D5qpClpu3xJyyElFV/rrbeentNwSxcLAKTNqpaplkt8C/XqPnWyTz75ZNAtFOeVV17xIyz2OEVHk4ZrO2ylAqZXr14591OHW1cBoyIpfj89z2gBowIgvk1t0feNrguj1z7nnHPW2KZjx47unnvucWuvvXaN22uLntf7778fPGquhx56KOfMIEWjJrW57bbbcu6jaNQppPexmOeqXHzxxcG9K0unvWvlaHtO91kAII20SOwUyxW+hXozr+Xt7t27z9JkVY1AdOrUKaeDKyYqUL7//vvgEWvSc0oqRNZcc806C5jgL/MaUQESLWB0WCm+TW3RCE50BEYFjEZcotvMPvvsbsEFF6xxWyHRoaV874MKmKRDOzq0VZt8BUy08Bk3bpyfrJy0Xb6kZQRGh/SC53S8BQDSaBXLJMvVvoV6o8lFfx1yyCFBl1C4ESNGuGWXXbZGxxZGBcbdd9/t3nzzTT/P44033vBzKBZffPHE7TX/JlpYhBq6gNFf8Pfee6/v6LVoXXz7Ll26+Dkt9913n7vrrrv8/J3o3JukAiYanR1zyy231Hgfzj777Lz3OeCAA/wlDOIasoDRfKHnn3/ezw/SVciTDnntvPPOvljQyJLehzRcWkDvU3D6tLK+BQDSaGWLLnNynW+h3hxh8Z1sMTR35YQTTqjRyYXZZZdd3OjRo4Mta/rkk0/yzrdIms/R0AVMVL6zkLQybT61FTA9e/Z0X375ZbBlTU899VR45eQamW+++RIn5jZkARM1aNCgxLOQ0nh5CX3GFltsMT2/7yzzWQAgjVayTLD09y3Ui5aWlzW3orb5F0k+/fRTp8sO2P1rpGvXrm7MmDHBVsm07HvSfVUs6HBGVLkKmFldByZfATP33HO7V199NdgqmQ7DNGnSJOe+Z555ZrDFv8pVwORbByaNC9lpNKt169Z6flx9GkCadbX8Y7nJt1AvFrOMUoGQb1Qin+uuuy6nk1OSOt8k//nPf3LuO9tss/k5NVHlKmC0Em++Aqa275OvgOnTp0+N07WT6DBM/NIFykYbbZRz33IVME8//XRmChg9J3tu0y1bWQAgrVa0aKXw23wL9UI7/sl1nYqb5PDDD8/p5OaYYw7foRci3+m98bNbslrAFFLI6XGT5hBpLk58FIsCpiYVeBtvvLGe2yjLChYASCvto8Zb7vQt1IvL1VkNHDgw6BYKp4XY7P41orORtOBaIbTYXfz+ylFHHRVsMUNWCxitL1MXTQZeccUVc+6rtXTiZyNRwNSkeULB6NWrltksAJBWy1v+stztWyjZPJZ3llxyybyn7tZmxx13zOnkdMbODz/8EGxRO605E7+/csQRRwRbzNAYCxiNyugMrygKmJp05ljw3M62AECa6SKzf1pYr6qerGv5Z+uttw66hOLodF+7f41o7RNN7i2ETtmN3185/fTTgy1mmNUCRvdbZ511cu5XrgJGp0rXRd8zqYBZYYUV/CUZovIVMJqLVBudAh6/j5L1AuaUU07R89JfNLpIGgCkmQqYPywP+hZKtr/OgNFclFmhyw7YY9SI1g9RR1sIXRsofn/lzjvvDLaYIV8BoyX942csRenSBknFQbkKmF133TXYIr+ff/7ZLbHEEjn31aUTxo8fH2w1Q74CRtdTqo2+Hr+PkuUC5q+//gp/tp9btBAjAKTZ0pZxlkd8CyW7U2uOfPXVV0G3UJzIEH6N7LPPPsEW+enwTtLlAbQkvBaWi1IBk7St5on88ssvwVa5dFr4/PPPn3O/chUwiyyySJ3zgXQ6efwyBMree+8dbPEvLSKXVMDUNVn4mGOOybmPkuUCRhfHbNq0qZ7XvZamFgBIMxUwv1se9y2UZGHLz+qcVSDMCs2b0ZwXe5waUVEUPxU6ThcSjN9P2WOPPXIWjVOxsckmm+Rsq3VWPvzww2CrXKeeemrOfZTaCpjNNtsscXsVXPnkK2AULfSXj1aRPfDAA3PuoyJFV4aOy1dYaC5SPrpStq4EHr+PUmwBoytyp8V5550XPq//WAAg7Zay/GZ5yrdQkh0s/q/zUuS7EOKiiy7qHn300RpL7ouKJU1ubdu2bc59dEaJlttPcuSRR+Zsr+jyA2PHjg22mkHfQwWSrkeUdJ98BYwKpx122CFne72W6MRkbRdd6r+2AkZXmtZcmN9//z3Yega1NXKSdHFGXQ8peq2l0Mcff5y4cq9GcHSl6jitMZM0ohQmXwGj4jPpvTv44IODLWbQ5QcqRSs923PS6dM6rgwAabek5VfLs76Fklyov/Rn9erTIc1BSRodUbQonZbm12RLddYajUg6KyhMbWfT6Po7SfdRVJD07dvXfw/9G/8e8ZVu8xUwoutBRbcNo9eoxz/66KP994iOWtVWwITRZOITTzzRP4b+zXflZ80huuOOO4JHrknzPjRxOel+Kgg1eqXHV/bbb78aF9hMWu03XwHz3nvv+fV84tureNIp7np8LUKoQ1qVoLlNSy+9tJ7Tc5YWFgBIuyUsv1ie9y3MsiaWpzWH5Keffgq6hVmn0321cqw95ixFhY6uCF3b9Yb0PDVpN+n++aIRnW233daPgkRvr62AyXdoK5oOHTrUOO08qYBRwaD5PEmHYmqLLqSoa0zlo4soJt2vtmy11VaJBVO+AkYjWvkOO0WjUbFKUIEXFGRXWgAgCxa3jLUM8i3MslUtv+pwSX1Rp6fON2nSbG3RirNa0K4QupJzvitfx6PiTIWFOrv41/Q98xUw3333nT+EE79PPK+//npwj/wjMP369fMTnRdaaKGcr8Wjw0DnnntunYdltPrsySefnHi16Hh0eOrQQw/1p2P37t075+u1rVOjq4YnjdpEo8M4laDXZN9/qmVbCwBkgS7b87PlZd/CLDvWUtA6JcXSGjDqYFUEaE2Y+Fkz6ng1MqHThHV6b74rVuejAkNzMXQF4uAifjMz77zz+vVTdHq3Jq+K5obobKBotO6NJuzmoxVet9lmm8RrFOkClEsttVRBBYwKEtEhmZ133tm/7ujXVWDoNo2Q1HXRxyiN0GgNHZ2Z1b59+xqPqfdbI0Sa+6KrXYdzdXbfffec9yHfoSpRoaTRKL2f8flK+hmqKNPhtNpGixqCCk9d4duex9eWOSwAkAWLWkZbBvsWZkkzy92apKmOtaGoA9TEVxUQGpnR2TaaO/LII4/4OQyldnw6rXnAgAHupJNO8o+tM2Q++OCDnBEMtbWeShjNI1EnGJ2Em4+KJS0Sp8c/7LDD/CGXd99915+RVMgkXo3AROkw2C233OLn2Wi1YY3OaB2YWaXn8M0338x8jiooNC8l/pjaTgWbXnv0vShkEq7u9/LLL/uiVN9DiwzqZ6gCMX6xyXIYPny4P/vM3l8uiAYgS8IC5g3fwiyZ0/KpJoNWogOqRoUWMCjd1VdfHb6/h1oAICsWsfxkecu3MEs0/2XScccdF3QJKBUFTHlo1G799dfXezvJ0stSqg4WXY19G8tyFo1OAkBDUAHzo+Ud38IsucJS6/wHFIcCpjx02GrxxRfXe/uKpa0lH60Noyu+6pojt1s0+z9qfssFlk8t4c9LO5YDLGm2oGUvy3y+lS6aUK0/jgql099PtuhnpKiIrGZaA2RHSxvfQmPUyTLS8r5voWitLEM18fOTTz4JugWUigKmPDTnKZi4fZalNhtaoj+LtSxRF1uiXw9zgiWNZrfsbnnPMsyykCUtulo0H2mKRc+xUK0tmgsQvvf9LNVobstBlm8tL1koYBqvjpYfLB/5FoqmYfIfdZHB2tZcQXEoYMpD76e9r+oo6zp9em2LVrz826Jjzt0sIXWcOgsg/Dk9ZtnSokNJ+gspjfyq2UE+sbS3pIFGgt60hM9Nz7NQs1l0UTv9jBSdGVmN9reE748WXtTrRuOky/eMsOh3GLNgZ8t0LRqH+jNw4MBwB1UjOusK9UMrPuvUe3tfVZjEDwnFaaFGHaIIo3aU1mEIf04qXEqhgmgeS0N2THtawuerUZhi5uroUFtDnW6uEwK+sITPbWNLMZpbwp9Rba9JI1B6jxvyddR2SDKJRlL0nDSqXZsjLOH7U58X8ZvLos9esXS/uuh91sjRrF4kVffT/Yv5nIbvpz4TxWpp0Wck7TRyOtzymW+hKNqJX6dVb3VaLOqPFoq78cYb/Rky0bz99tvBFiiVTvkPDh+9aKlrx6oFo86z6FDR2Rb95SMnWm6waFQm7FS0rPfVFh0+UkdaCP0ubW3R/JoXLK9b9Di3WDa1JFnRcpVF3+syi+azRGn050KLvn6uRTtz7Zj1nHXoIXy+Wopc30fbhdeB0pwe3Ue3HW/R+6NDOzdZdF8VbHdY1rPEqUPTXBTdV9HoVZQ6ocMs4ddXt0j4+nVxuvC56Rov2mY3S13UUe1r0c9IWd8SpcJAX7/HopVLdbhJr+MByzEWvT/F6G4JX8PmuiH49z7Lqxa9T3qP4s8jSu/F9hZtN9Ci56RRlRstG1iiFrDoZ6LPRvj+6K/v6y16vV0sdVnFEj7nPXSD2cJyv+U1iz57mtOoqxzHrWYJ79vHos+Ith1s0ahjfBRT7+eRFr2/ep/1+E9Y/mdZxpJEn4Hwe+j91edOnxXdT6/7SYs+v7UVTXq/b7XoZ6z76EKH+j3QnKE4FVanW/T99HvdzqI/QPS5035Bv1dpOrwap9/5bywq+lEk7cSHd+zY0f3yyy9BtwBkw9133x12Avvow1wHdSbh9op2rqIJdNHbo/neUshftDqO/ZBlsiXpcSZYNCdkXktU9DCQsoIlSoVB9DG0ZoR22JpcHL1fNOpARDv7fyy6TQv8HWdRoRPf/k/L0ZboX8bhcflwm8MtUSqidNpn+PX9LHKdJbwtHr0/ddF7rU4yvE90XpM620ct0ceMRx1WIUVASFctD++rAkTFRfTxwoyz7GKJ08/jaYsOYSbdT4fBrrFo5EH0803aLkxthVJIRUu4vTp4TTyPPkaY7yxhURb6ryX8ug7VqeiJ3udMS0hF94eW6NejUcGv4iY+kqlLeYTbXGqJf48wKrTio6b6XJ1hGW9Juo9+H+M/BxUnYyz6uj7LKgQ1IhveR/OMdGZhWqmo1e+n5rHF30vUQaedTtl///2DLgHIDl080j6/f1k0klGXnpawQ//dor9kRR2XJtBp5xfd6emwjEYTtFOtjTondSThfVVcaMetvzL1160WqQq/pr9ko4cl9JeiLn+gr6mzi19FW/N0wtEMPW5ni56PiqFo4aXXpc5GRcWaFlFHHm6jx9a/2uZUi55b9JDZRIvm/IT0h43ek/DrmrMRpeeg0aXw6zoLSg6xaChcxVb4Nf11+a7lFEtddMhNBUF4Xz3PkIqs8HaNGOjx9HX91R09ZPWwpdBRs10t4f3Uaep562ekx73cos9J+HWNrER/dvrLOToKppEUdZ66r0bVop2oRhM0uqSOVKMJ0dE+FUc6A0WPpRGyuuispfC+4c/1GYu+rwo+vf/h19XhR4tiTagOv6afefh/RZ//cGK7/g2LAkVzmsLPjQrR6RbdroL9YEuURjn1NW0Tvqc3W8L3JTo6p8Nn0cOsKojCr2k7ba/73WkJ/zjQ89TvckgFgDp/fU3bhL9PYTRyk2aau6bn/5VlVg6VNWrH6No2zz//fNAlANmgEcMll1xSOyh1joWcQhwvYMIRGM110OGl6MRT7ZT1mPpaXaITMvWX1BqWqI0s6kjCbcJhfym2gAn/YtXz0iGT8DF16rcOGWiEJ+y8tW20yNFQfHQoXYWXTlUOvz7AEs4ZKLaA2dsiGkFZ2RJ2KIpGOfReFjIfIV8Bo79MVZiEt+u1Ry1v0V/0WkvjXos6tUJECxglXmSpHX5NBUr0sIwOy4Vf+9ISHkYL9baEhYo68/BsLL3vGukI76vDTipsCp3rES1gFI16RYtsFSx6PuHXdbgnFC1gFE0c1UiLDi3pazpEp8+PDieF22gEJXpoTs9RhVI46qTP5VKWUFjAKHrdOuQXpeevok1f12Po8JfocGn4vPV7upMlSj+LaRZ9XYdBw0PG0QJG0e+TXrM+E5rfGT/bMG10yOtziwr9uv5YQswzun7NF198EXQLQDboYp/BxSv1110h8hUwoh235jyEO8GkwwVJ9Bd5dPTlNEuSaIeljj/cURVbwOjS+6Ho4Q+NrMTnFEQLGH0P7czjVFxpAUBto7+WV7LIrBYwog4lupZOeEirELWNwFxiCW/Xz+8uy1GW7Sx6X2Zl+D1awKjYiM+x0Nyf8C9/jaSpOBN9XqKjL/GCKqR5GeE2OvwVHqaLjibp9Rbz3KMFTPwzEdKK1OE2ep7hadrxERi9d3E9LOFopAqMpDlSev3REbzoIcZoAaPvnTRpV/Ngwm2u1Q3Gn0xi0W0a/dT3iNLrDH8XNEIavu54AaO5Nlk6FKNDo/p90SG/hpz0X3W0sxy9wQYb+Ov4AFmii47a51d/kYV/2daltgJGIxrRuRc6w6cQ+sszOq9EHWISPcdw56y5JeFISCkFTHTkR8VG/DTqaAGjv3jDzjdKf6VGR2k2sUgpBYxWFo0exij2NOp8BYyKK/2lGn4tjD4Dem9USIYjZ4WKFjAqAuOTPfUZCQ+16IrB4an34eJjul2HSFQIJon+jHSYKCwyo6M3mmxaTMcVLWDU0esv+DjN9wo/V+rcw9cVLWBUBOiQZJwKiXAbjShqPlQSFR7hdprnE4oWMCrgkkQLOx3+Ev2sw9v+sGhk9e1I9HkMR330M9/MIuEhmPC+0RGnLNCo6ccWnYmUhbOmUkNDe+7EE08MugQgG3TByR122EE7K+2E451OPg1RwGgNpeiEw6RRDlGnE3YooyzhpMK6Chj9Naw5Pvp6KQWMiqCkAkYFmP7yCx8nnPRZVwGjv+i18nH49XIUMKLXpMXtNAcm3CYePa9CJ23GCxi97igdFkoqYHTIMZwjop9/0iiFRCfcqpMKD8XUVwGjTj6pgFnXEo4cRYuQaAGjw21J99XoY7iNRgbyHY7zq7cH0VlUoWgBozksSTS/KNxGhy5Fc2zC2wpJOO8qXsDocbJEnwn9rukQZSGHrBG4qG3btu7VV18NugUgG4YNG+bmnXde7ay08yt0uLghChhN5Ix21vEJjaHo5ERNtA2H9HV4JTyurwImfuqrRkTCkZvaChh1vvHOKFrA6C9XFUtxmh8QFkgqpFQwiQoAdbjh48fnMejQmTrP8Ou1FTA6xbhQ+QoY/Yw150GHIzT6o9eqM3YOtGjCtCbYRiel6pBdIWa1gNE8Fm2v2/Xzy3eKePTQoebohIdFogWMRiBmtYBRp6czoeKi22huVzjyEy1gdLsOX8RpTkr4mdRnIzysGBc9I0yn3IeiBYwmLCf9fmqeUriNJuiKDkOFt2lkSXOIVIipONS/+mxqfpkm3yvh5z1+CKmQyeJpos+SRuf0uxqda4RaaIc9pGvXrm78+PFBtwBkw6233hrurIpZar4hChhRBxreTxMy44uf6S/E6PL4fS0hnfkTjsDoL+bwDKJQtAOMFzC6RlP4NRUM8Z1ftIBRtLZJ3EmW8OsqSMLTvPWctVMNv6btolT46D0Mvx4tYHRYInqop64VkqPyFTAaZdM6N5qnpLM14qcHi9ZeCe+ndWIKMasFjPS3hPfV944P/+s553sPtb5QeLtGYOpawygqWpwoOj0+SpNso8WFDvWERUS0gFEhnVTA6D2I/vy0xkqcipzw0KYK77DwlWgBo0OX8dEpfT6iBYdO7RYVJzp0pNv0uY2vgK1CSu+hLsGgn384tybrBYyKS/3u6fe7mMOfjZo+cFN22WUXN3369KBbALJhn3320Y5KIxPRHWddGqqA0Y41esqp/urU99KOVddfik52VCcZnVOgwzrR02119ocOS2lkR0PhOjyRbwTGHwIOokmXWvFWp06Hh9Sip1GH0YRnLUCm56ZCKlqERCdiapRDIwPh13QYQp2W7qdRIxUR4deUaAGj7x89/KQ5CeoUdbgqaUJnVL4CRsVB9MwYdVg6XKdCS9H3j75WjcwUopQCRktQhGfTKDolWJ9HvUcaPYge5hpi0fMMRc8g05k3etzw51KXeAGjwlcjIOF7rEUZw8+M5ufouYQKKWBEk6PD7VRU6GeogljPTwVE9DRwFUjRn2u0gFE0SqT3WffVexY99KhRvvA56OwnXWw1/NpQiwoV3U//Rj9zWvogHM3S17NcwGhdJ83x0aHlpEN6SOD/8urfv3/QJQDZMGXKFLfaaqtpR6Vj+Bp+LZSGocOhcRUyOnU0pAImujCbzvAphjpT7YDC+yvRQxrKB5bo9xQVClojJLqdRmTCyYr6SzrccY+1RM+S0WhN+Berotem+4XFV7SAUSEUPeQRf246VTb+Xmr+Rvg8woTzKvQXY3TEI/wrWvSaoocIFJ3ppLND6lqfRQVMdHJw9NCE5p1EV7BV9Drir0VnJ4WH6OoS7dA16hCfO6P3OPy6ir34lbV16Eg/l3AbJf581DmFaw6F1CGHn0VFP3Ml6ayguGgBozOjwjlM+tlEf14qYuJnxWneSPh1jQ7l6zB1OrzO+oo+Rz12/LVpnaT45yZawGh9nrBAD892C6OCMDyFOqQ5YNFDk0r8e+ozED1spmI/Oo8racQozVTAaN+jn6VeCwrw6DzzzOM+/fTToFsAsuHNN990c845p3ZU+c5wyEd/TWskQaMlOuQSXTRMOxEVC9rZqtMvZt5GSI+nZcu1Y9ZfvuEOX3+tarXUpDM+RJ2IXou+twor7eg1OVmdjf46Vcev4Xrt2KM7bh0q0KiJCicN4+t+KlR0aEmiBYxeszpjba8dpTo7PUeN6ugvVhVwcfqrWiscq4AKH18jDpq8qb/2daFFdd76/vGJunov1HHr+eg90H1V8NRVWOivav11rTO79Jy1MF6UCoxzLFpXR++V3mO9Fj0/FSCaa1RMUavRJL0Heh2aoxIfAdEImX4W+roKwKQFEzV6orNw9HPXa9Vz0nur917rpSRNKFahphVn9bjhz1zvVSETnqMFjEZ29Bz1/fUe6L3Q42l9FxVX8REvHc7Tz1/fVyOF8ZWho3TYSaM3+vxphE/PUa9N30fFuEa9kn6e0QJGvw/6LOgMMd1fz0+vU4fN4sV8SHOoLrLo9yb6e6Sfkxali4+S6XdEhxb1uvR7outMZYlGF/Vz1Oc9/tqQQMfcvujTp4+bOHFi0C0A2XDSSSeFO0ddX6UY6vDVuWmnrd+B6M5dO2sVMfqattEowqxSJ6jDATq0pH+jhw5qox23OkgdQooeC1dxobaec9JcCe30dD9FRVJ46YPoHBiNHuiUadFfeVrsTCnkDC51EHpOevzo4S99H71fmnuT9H7p/dSkZL0POrShbZMmdMZpDpG2VfJNblXRp8fUY6uD1GstpnAJ6Xnr+et76fnG3199RvJ9ZuL0vmoEQc9Jr7uQwwGa56H3VT8b/fzja58kiRYwmuyq5y362et76znkmwwaf72F/Dz0e6Pnps9L+F4nFbyhaAET/pGh1xX+vHQYtJDXGf090ucvXlyG9Br0fPS69HuS7zOTVioCNaqkoj0+7wcJtMLhZHUEQJao4N5kk020Y9Qvu3amyC9awOgv0+j8DWRXvIDJ17FXSrSAia4Pg2QquDRfSr+j+UZpEdG/WbNm7v777w+6BSAbhg8f7jp37qwdo4b7UTv9pRvOy9Fcmfj8DWST/gANCwQd1kpbARO9uKQuc4DaaTRKh1s1Byo6SR8JNBz6xuKLL+7Gjh0bdAtANrz88suuadOm2jFGJ3cimUZgNFdEEzE1YsUITHXQPBn9TBVNZE9bAaMzlsLnV+w8tcZIE9s1H0pnCKbtZ5k6Oovht9133z3oEoDsOPTQQ8O/7MIl75Gfdoya9Ku/6nQGTyHzDpB+miOkn6miORO1zcupBM1DCZ8fpwUXJlyksZA5SY2aXyb6hhtuCLoEIBv++OMPt9hii6l40dkJHCsGgEZE1d0AzX954403gm4ByAadPj3HHHOogNFCXfylAgCNiIYbR3Xr1s399ttvQbcAZMM111yj4kWLc+W77gwAoErp8uMTzjzzzKBLALJBl7vQvC37/GoBrviqpgCAKndqy5Yt3ZNPPhl0C0A26OrTHTp0UAGja+zEL5oHAKhi2ukP6tSpk/vmm2+CbgHIhoceekjFi8K6EgDQyOg6KP+svfbaburUqUG3AGSDDnva51fXRFlbH2YAyABONqgnulqsu+yyy4IuAcgGFdzrrLOOChhdiDF6jSAASDMVMFtZ9rPo+lOYRf3btm3L4SNkzocffuj02bXP8MOWUi6yCADlpsVjdaV0XdVdhYyuEo8iaOXGL7t37+7GjRsXdAtANlx00UXh/JcT9GEGgIw50BLux1TInGvhYrQF6mOZvN9++wVdApAde+65p37pf7esoQ8zAGTMXBZdcTosYpQ/LTdaNragFv7y5rfcckvQJQDZ8Msvv7iVVlpJv+wvWXRtHwDIog0skyzRIiaMDo/vbmltQYQuEvVoly5d3IgRI4JuAciGZ5991jVp0kS/4Nf6TzMAZNetlnjxEkZX7x5iOdyiVfNhlraM3GabbYIuAciOvn37hr/ce+jDnEIrWy63XBn8SwghSbnU8pQlWrTkiyb96j5adTxtVxsvq70s7rTTTgu6BCAb/vnnH7fuuuvql1mXD+ioD3MK7WyJ73wIISQpEy0aaUn6WlLutyxmaZR0DvqtGoJ/8cUXg24ByIYff/zRLbjgguEvsQ6FplF7i45tK+sTQkie9LRcYKmrgFGR86Bla4sm/zZaunzAB8stt5z7448/gm4ByIY777wz/IU+Uh9mAMgw/RGmkxGixUo0P1mut+iwdKM+bBRa0fLHUUcdFXQJQHZsu+22+qWebOE0QwBZt7clXrQon1rOtGi+KiJOt7ibb7456BKAbBg9erRbdtll9cv9gWV+fZgBIKN0VtEIS1i06LpuQy0HWBa2IEZLrr8477zzuqFDhwbdAurL2LFj3cCBA93zzz/vXnjhhYKj04LfeustN3ny5OCRkGTw4MGuTZs2+kW/2n+aASC7tPKu9mea3/K4ZXsLh4lqoeGoERtttJGbMmVK0C2gvtxwww2+g23dunVRadWqlevRo4dfoA356f21z+9Uy076MANARukK+h9bbgv+n9YTElKlt2Vqv379gi4B9emYY44JhwKLTteuXf0IDpJNmjTJbbjhhnqvdPmAZSwAkFXrWVab8V8U6uyWLVu6QYMGBd0C6otGtLQwoL3Hs5Ru3bpRwNTi008/9SNV9l5pVUqW1gaARmReyzdaQ2PkyJFBt4D68vvvv/tRFHuPZykrrrgiBUwt7rnnnvC9OtoCAGhEelim7bzzzm7atGlBt4D68uGHH7q55567RlGixQLbtm3r5pxzzjrTs2dP5sDU4ogjjtB7+rdldQsAoBE51OLuu+++oEtAfbr99ttrFC/K8ssv777++ms/slJXNIJDYZlMlw9YffXV9Z5q0tuCFgBAI3Jn+/bt3UcffRR0C6hPhx12WE4Bs8suuwRfRSmee+45N9tss+k91amGuhQGAKCR6Gz5ds0113R//vln0C2gvmj9lvXXXz+ngLnooouCLVCK8847T+/ndMsRFgBAI7K7xf3nP/8JugTUJ11gUNeW0nscRiMGTz/9tPv222/dHXfc4U444QR35JFHuosvvtgvXjdmzJjg3qiNDqvttttuek91TRBWpwSARuZ/On1aQ/Gof2+88UbOBN7ZZ5/drbbaauGVk2tEi9116tTJnXrqqW7UqFHBoyCJ3p+OHTvqfRtoAQA0Iq0sg5Ze+v/bu99Qn9s7DuB3/ia3I2OJCWPlwWZ4gJT8axvLv6aUwpLNn0Mr+fPgJGIsssJ4YPNILTvLfTv5s/LIA6FDubMnVth9E9JCPHAMkWvX59v3tI7ffd92b4f26/t61bscfX/nwXWuuj7ne67r+oxKL168KJcFOtPRo0eLE0d5nL9x4uh1a2tr+Z14W0tLS/tYRct5ACok2ge0LVy4ML1586ZcFuhMGzdu7FCUfNPEG4Z4i0OtFStWtI/T/BwAKmRdTtqzZ0+5JNCZnj17lmbOnNmhIPlvMnHiRH9Oektsjp48eXKMz99yBuUAUCGfxobSCxculMsCnenGjRs1+18i8X9r1qxJp06dKt6uRJqbm9O8efNqnm3Pvn37yu9KiMsBBw4cGGNzOAeACon2AX+dMWNGamtrK5cFOtP9+/fTjh070tq1a9OCBQvSyJEj09ixY9P58+fLJzqKtwqbNm2qKV4iU6dOTU+fPi2fZP/+/e1jo30AQMX8JOd57NHgw4hj01HUfJ3Hjx8XRU7+2XRInz590tWrV8unqi0KvSgI87hE+4BJOQBUyG+6dOlSXHPP/5dVq1bVFDBdu3ZNZ86cKZ+otjt37qQRI0bEuHyW0z0HgIr4OOfcgAED0q1bt8plgfctTnq9fv26/OqrbdiwoaaAiWLz+PHj5RPVdunSpdStW7cYlx05AFTI93Iezp07t1wS6GxRqMTm3GPHjqUjR46knTt3piVLlqSmpqZ33rnT2NhYU8DEG5izZ8+WT1Tb5s2bY0yifcDsHAAq5Gc5bw4dOlQuCXS2KGBmz55dU4hE08xr166VT9WKDdXRl+rtzw0ePLjYQ1N10X263CP0j5y4xwiACvlT9+7d07lz58plgfch3rrksa7J0qVL06tXr8qnOorTNV92c2/0/Pmqz1TJlStXUr9+/WJMjufY/wJQId/O+TwaDL7rRAz/m1hs+/btW1OMRBYvXlzs5Xj+/Hl6+fJlun79etqyZUtqaGioeTb2e8SdMaSi+WVZ4P0qB4AK+VHOs9WrV5dLAu9LdEtet25dTUHSnjgaHY0bhw4dmvr37/+lz0SWL1/u7Utp/fr1MSaPc8bnAFAhq+M3+rj5lffvwYMHadq0aTVFyX+aSZMmeVNWunv3bho+fHiMy7WcvjkAVES3nE9iQ2hcc8+Hcfv27TRnzpya4uRdic/YuPtvp0+fbh+bP+YAUCE/zGmbMGFCse+CD+fJkydp7969RTuB/DP42owaNSodPHhQ64C3RFuGcox+mgNAhfw8J23btq1cEvjQ4m1MS0tLsWF3/vz5xZHgMWPGFP/evn17OnnyZPGnEmqVx9Lv5AyOyQxAdfyuZ8+exekYqCdR+A0aNCgKmNM5PYrZDEAldMm5FL/tP3r0qFwWoD4cOHCg/fj0b4vZDEBlTMlpW7RoUdGTB+rJsmXLonj5Z86PYzIDUB2/zkm7d+8ulwSoD7EBOjae5/nbmuP2XYAK6ZrzSewhuHnzZrksQH24fPly6tWrVxQwfyhmMwCV8Z2cv8+aNatcEqB+7Nq1K4qXyC9jMgNQHXFvRmpqaiqXBKgP0UJh+vTpUbw8zxkdkxmA6vh9Tjpx4kS5LEB9uHfvXho2bFgUMH/JcXwaoEJ653w2ZMgQF6RRd+LSvx49ekQBs76YzQBUxg9yHjY2Njo+Td1ZuXJlFC8vc2bHZAagOtbmpMOHD5dLAtSHhw8fpnHjxkUB83mO9gEAFRLHpz9taGhIFy9eLJcFqA+tra2pd+/eUcD8uZjNAFTGd3O+mDJlSrkkQP1obm6O4uVNztKYzABUx6ycNHr06LR169aiA7JIvWT8+PFRwDzL+X5MZgCq4xc5t3JiD4FIveWLnDg+3TcHgArpk9M/51sidZiYux/nAAAAAAAAAAAAAAAAAAAAAAAAAAAAAAAAAAAAAAAAAAAAAAAAAAAAAAAAAAAAAAAAAAAAAAAAAAAAAAAAAAAAAAAAAAAAAAAAAAAAAABQLz766F+ts8B2JfysngAAAABJRU5ErkJggg==;fillColor=#182E3E;strokeColor=#FFFFFF;fontColor=#FFFFFF;" vertex="1" parent="1">
          <mxGeometry x="310" y="300" width="560" height="1210" as="geometry" />
        </mxCell>
        <mxCell id="uW6Slytk5kO-GJP7YJL2-2" value="" style="endArrow=classic;html=1;rounded=0;exitX=0.231;exitY=1;exitDx=0;exitDy=0;exitPerimeter=0;labelBackgroundColor=none;strokeColor=#23445D;fontColor=default;" edge="1" parent="1" source="uW6Slytk5kO-GJP7YJL2-1">
          <mxGeometry width="50" height="50" relative="1" as="geometry">
            <mxPoint x="440" y="1520" as="sourcePoint" />
            <mxPoint x="440" y="1600" as="targetPoint" />
          </mxGeometry>
        </mxCell>
        <mxCell id="uW6Slytk5kO-GJP7YJL2-3" value="&lt;h1&gt;stop&lt;/h1&gt;" style="rounded=1;whiteSpace=wrap;html=1;strokeColor=#FFFFFF;labelBackgroundColor=none;fillColor=#182E3E;fontColor=#FFFFFF;" vertex="1" parent="1">
          <mxGeometry x="350" y="1630" width="180" height="100" as="geometry" />
        </mxCell>
      </root>
    </mxGraphModel>
  </diagram>
</mxfile>
